<?xml version="1.0" encoding="UTF-8"?>
<svg version="1.1" xmlns="http://www.w3.org/2000/svg" width="545" height="458">
<path d="M0 0 C1.02012546 -0.00445784 2.04025093 -0.00891569 3.09128928 -0.01350862 C4.22577262 -0.01332426 5.36025596 -0.01313989 6.52911758 -0.01294994 C7.72388663 -0.01662663 8.91865567 -0.02030332 10.14962983 -0.02409142 C13.48170724 -0.03324092 16.8137353 -0.037833 20.14582062 -0.04048073 C23.73452144 -0.04437585 27.32320789 -0.05395562 30.91189957 -0.0626936 C39.59390332 -0.08249435 48.2759083 -0.09253486 56.95792902 -0.10142139 C61.05059089 -0.1058038 65.14325147 -0.11117124 69.23591232 -0.11641026 C82.853195 -0.13343631 96.47047686 -0.14792419 110.08776855 -0.155159 C113.62504197 -0.15706883 117.16231538 -0.15898915 120.69958878 -0.16094494 C122.0183107 -0.16167055 122.0183107 -0.16167055 123.36367348 -0.16241082 C137.56288881 -0.17068723 151.76201923 -0.19597732 165.96119758 -0.22852562 C180.55544248 -0.26170472 195.14964446 -0.27961805 209.74392724 -0.28280324 C217.93104188 -0.28495978 226.11803322 -0.29358055 234.30511093 -0.31926441 C241.28848574 -0.3411212 248.27170737 -0.34894962 255.2551125 -0.33929763 C258.81015861 -0.33479396 262.36488975 -0.33640437 265.91989136 -0.35605907 C301.84107847 -0.54363062 336.71333568 6.14503391 363.43787003 32.00922108 C365.13318253 33.68890858 365.13318253 33.68890858 366.31287003 35.13422108 C366.31287003 35.79422108 366.31287003 36.45422108 366.31287003 37.13422108 C366.97287003 37.13422108 367.63287003 37.13422108 368.31287003 37.13422108 C371.33072204 41.25861883 373.85684083 45.6555796 376.31287003 50.13422108 C376.70474503 50.79422108 377.09662003 51.45422108 377.50037003 52.13422108 C384.3979618 64.54988627 386.75719643 78.01151213 386.81287003 92.07172108 C386.81907364 93.08887196 386.82527725 94.10602283 386.83166885 95.15399647 C386.70961496 102.4885426 385.34410492 109.1042103 383.31287003 116.13422108 C383.02291153 117.16845203 382.73295303 118.20268299 382.43420792 119.26825428 C379.43161733 129.67536194 373.66077948 139.19053518 366.31287003 147.13422108 C365.61162003 147.91797108 364.91037003 148.70172108 364.18787003 149.50922108 C354.77401569 158.10447939 344.24539928 164.76186364 332.31287003 169.13422108 C331.29579971 169.50933826 330.2787294 169.88445545 329.23083878 170.27093983 C326.59494789 171.23529015 323.95587415 172.18957321 321.31287003 173.13422108 C325.05054096 175.26449985 329.07195355 176.25314704 333.18787003 177.38422108 C345.28474742 180.83658542 356.42288456 185.81271732 367.31287003 192.13422108 C368.13142471 192.60215076 368.9499794 193.07008045 369.79333878 193.55218983 C381.69858969 201.02757994 391.8060852 211.31623489 399.31287003 223.13422108 C399.97222549 224.14162342 399.97222549 224.14162342 400.64490128 225.16937733 C412.90102383 245.36279831 415.43886293 272.01957128 411.12537003 294.93500233 C405.40488948 317.45939447 393.78751814 335.00489991 375.31287003 349.13422108 C374.65931534 349.63953358 374.00576065 350.14484608 373.33240128 350.66547108 C368.16528793 354.3783669 362.53597799 357.08621338 356.81287003 359.82172108 C356.01759903 360.20255848 355.22232803 360.58339588 354.40295792 360.97577381 C345.26609234 365.243658 336.18275678 367.75555986 326.31287003 369.75922108 C325.28419815 369.97578358 324.25552628 370.19234608 323.19568253 370.41547108 C314.37111772 372.23427451 305.8015472 373.29012175 296.78966141 373.25447559 C295.57756228 373.25575723 295.57756228 373.25575723 294.3409763 373.25706476 C291.66027892 373.25869878 288.97964552 373.25323255 286.29895401 373.24774647 C284.36661658 373.24746412 282.43427905 373.24762326 280.50194168 373.24818897 C275.27535913 373.24847509 270.04879967 373.24260833 264.82222247 373.23561502 C259.35296544 373.22935061 253.88370785 373.22877524 248.41444778 373.22758961 C238.06619678 373.22448539 227.71795637 373.21628426 217.36971003 373.20624012 C205.58496276 373.19505073 193.80021497 373.18956141 182.01546371 373.18454468 C157.78125994 373.17410088 133.54706558 373.15651906 109.31287003 373.13422108 C109.31287003 370.82422108 109.31287003 368.51422108 109.31287003 366.13422108 C114.15437079 364.10187467 119.11729112 362.68598275 124.15662003 361.23187733 C129.66536913 359.31608711 133.03162735 357.00338848 136.31287003 352.13422108 C137.60089222 349.08411329 137.60089222 349.08411329 138.50037003 345.82172108 C138.82392471 344.75308826 139.1474794 343.68445545 139.48083878 342.58343983 C141.34049997 334.87414015 141.45967332 327.35023457 141.45331192 319.46014881 C141.45628304 318.30079004 141.45925416 317.14143127 141.46231532 315.94694042 C141.46946238 312.74644785 141.47217204 309.54598811 141.47291279 306.34548879 C141.47477228 302.88652564 141.48232412 299.42757392 141.489048 295.96861744 C141.5025963 288.41247432 141.50865074 280.85633654 141.51305866 273.3001833 C141.51582735 268.57557025 141.52006587 263.85095922 141.52456284 259.12634754 C141.53675155 246.02690224 141.54705124 232.92745855 141.55043793 219.8280077 C141.55065749 218.99054445 141.55087706 218.15308121 141.55110328 217.29024029 C141.55132156 216.45085226 141.55153983 215.61146423 141.55176473 214.74664021 C141.55220818 213.04591846 141.55265474 211.34519672 141.5531044 209.64447498 C141.55332583 208.80087075 141.55354726 207.95726652 141.5537754 207.08809853 C141.55771966 193.4323878 141.5751641 179.77673055 141.59846392 166.12104046 C141.62223163 152.0769137 141.63464226 138.03281372 141.63580585 123.98866653 C141.63671963 116.113154 141.64239675 108.23771114 141.66062546 100.3622179 C141.67609988 93.6533687 141.68110399 86.94461072 141.67288736 80.23574704 C141.66900642 76.81899972 141.67144833 73.40258353 141.6839447 69.98583508 C142.65884316 42.07976345 142.65884316 42.07976345 131.02771378 17.70453358 C125.02699435 12.20956954 117.25679072 10.61627948 109.31287003 10.13422108 C100.89423385 10.67229636 92.97294197 12.95156099 87.12537003 19.25922108 C78.80168926 29.87987385 78.18374841 40.45937426 77.76135635 53.4721117 C77.74041526 54.11525224 77.71947417 54.75839277 77.69789851 55.42102242 C77.02143238 77.06688239 77.15964944 98.73244706 77.14553871 120.38625976 C77.13957766 129.5217931 77.12312442 138.65727849 77.10286331 147.79279041 C77.09969949 149.24571719 77.09654419 150.69864398 77.09339732 152.1515708 C77.0918306 152.8748459 77.09026389 153.59812101 77.08864969 154.34331354 C77.08629174 155.43205082 77.08629174 155.43205082 77.08388615 156.54278278 C77.08230238 157.27100535 77.08071862 157.99922791 77.07908687 158.74951783 C77.06127413 166.97524307 77.04498537 175.20097084 77.02991104 183.42670155 C77.02853517 184.1756086 77.0271593 184.92451566 77.02574173 185.69611686 C77.00380723 197.83350459 76.99304803 209.9708818 76.98554029 222.10828584 C76.97741279 234.67181063 76.95395612 247.23524799 76.91758662 259.79872274 C76.89776295 266.81197432 76.88491292 273.82508712 76.89042091 280.83836842 C76.95902362 383.02119444 76.95902362 383.02119444 46.31287003 416.13422108 C45.65287003 416.13422108 44.99287003 416.13422108 44.31287003 416.13422108 C44.10662003 416.69109608 43.90037003 417.24797108 43.68787003 417.82172108 C41.79392478 421.00699262 39.19610978 422.8393976 36.31287003 425.13422108 C35.31155337 426.13290269 34.3115822 427.1329349 33.31287003 428.13422108 C13.75655779 445.27678193 -12.94325167 449.49942261 -38.02990341 447.99359608 C-48.36712636 447.26263937 -57.9231791 445.78243642 -67.68712997 442.13422108 C-68.63587997 441.79004139 -69.58462997 441.4458617 -70.56212997 441.09125233 C-74.77929186 439.49142783 -78.09969482 437.87755384 -81.68712997 435.13422108 C-83.11249813 434.3411789 -84.55061288 433.57068018 -85.99962997 432.82172108 C-90.31819785 430.46223863 -94.35074404 427.79244489 -97.68712997 424.13422108 C-97.68712997 423.47422108 -97.68712997 422.81422108 -97.68712997 422.13422108 C-98.2672081 421.90476795 -98.84728622 421.67531483 -99.44494247 421.43890858 C-107.48364412 416.76133654 -113.92334849 403.68169036 -116.28258896 394.92377186 C-117.67750865 388.64074099 -118.02211206 382.55510592 -117.99962997 376.13422108 C-118.01574326 375.21383045 -118.03185654 374.29343983 -118.0484581 373.34515858 C-118.05478048 364.36738177 -116.72754219 356.36393275 -110.31212997 349.69672108 C-109.18677841 348.49209217 -109.18677841 348.49209217 -108.03869247 347.26312733 C-101.48771754 341.33242743 -95.28425279 341.16349618 -86.68712997 341.13422108 C-79.73865386 341.55090441 -75.25939081 345.18518151 -70.68712997 350.13422108 C-63.21344954 360.03179786 -63.12699758 374.59563923 -61.77672958 386.51874256 C-60.11389418 400.93825551 -56.40394602 416.38528727 -44.68712997 426.13422108 C-34.57055028 432.76684897 -24.50985825 434.89679658 -12.49962997 432.50922108 C-5.48211665 430.44782654 0.49868102 425.48331998 5.31287003 420.13422108 C6.51943253 418.89672108 6.51943253 418.89672108 7.75037003 417.63422108 C22.43543682 399.23199675 23.45654241 371.63399992 25.55115128 349.20062733 C25.61441101 348.52495716 25.67767075 347.84928699 25.74284744 347.15314198 C25.9503804 344.81465934 26.13166454 342.47490452 26.31287003 340.13422108 C26.39597962 339.12232653 26.47908922 338.11043198 26.56471729 337.06787395 C27.51438468 324.07584426 27.45371157 311.09863664 27.44226456 298.07782459 C27.44362183 295.4725387 27.4454036 292.867253 27.44757462 290.26196766 C27.45199231 283.95516049 27.45107373 277.6483653 27.44816197 271.34155769 C27.44589191 266.20955222 27.44560233 261.07755007 27.44668579 255.94554424 C27.44691564 254.84462626 27.44691564 254.84462626 27.44715013 253.72146751 C27.4474699 252.22987048 27.44779411 250.73827346 27.44812272 249.24667644 C27.45096585 235.30030596 27.44770896 221.35394208 27.44232236 207.40757268 C27.43785632 195.475876 27.43863087 183.54418906 27.44324112 171.61249256 C27.44860918 157.7132598 27.45069029 143.81403281 27.44762886 129.91479915 C27.44731035 128.42877066 27.44699598 126.94274217 27.44668579 125.45671368 C27.44653152 124.72580814 27.44637724 123.99490261 27.44621829 123.24184843 C27.44535975 118.12453061 27.44680167 113.0072165 27.44916534 107.88989925 C27.45228523 100.98444039 27.4500207 94.07900006 27.44427109 87.17354298 C27.44295738 84.650568 27.44331377 82.12759146 27.44553375 79.60461712 C29.2151532 48.18111674 29.2151532 48.18111674 18.62537003 19.94672108 C11.84143372 13.27543317 3.32467758 11.35769509 -5.68712997 9.13422108 C-5.78478622 2.98187733 -5.78478622 2.98187733 -5.68712997 1.13422108 C-4.05929849 -0.4936104 -2.2486384 0.0045321 0 0 Z M192.31287003 18.13422108 C190.65511503 24.87496132 191.17273417 32.03670843 191.18347549 38.93231678 C191.18211897 40.32910171 191.18033762 41.72588628 191.17816544 43.12267017 C191.17362317 46.89913799 191.17536688 50.67557836 191.17854452 54.45204663 C191.1810822 58.40691179 191.17872689 62.36177465 191.17715836 66.3166399 C191.17534184 72.95155731 191.1777305 79.58646357 191.18249893 86.22137928 C191.18795178 93.89738171 191.18616942 101.57335763 191.18067253 109.24935943 C191.17614001 115.84226087 191.17549119 122.43515431 191.1781112 129.0280568 C191.17967176 132.96500788 191.17987351 136.90194647 191.17657471 140.83889675 C191.17369362 144.534962 191.17567606 148.23099288 191.18146896 151.92705441 C191.1834288 153.93524725 191.18044546 155.943443 191.17734146 157.95163441 C191.18016129 159.13907749 191.18298111 160.32652058 191.18588638 161.54994678 C191.18626341 162.5861683 191.18664043 163.62238981 191.18702888 164.69001198 C191.14961024 167.14156234 191.14961024 167.14156234 192.31287003 169.13422108 C200.32925663 169.20452581 208.34550898 169.25743213 216.36213017 169.28965759 C220.08678969 169.30514411 223.81123445 169.3260597 227.53577042 169.36053944 C243.67078566 169.50588877 259.46205935 169.59649029 275.31287003 166.13422108 C276.09550217 165.96874775 276.87813431 165.80327442 277.68448257 165.63278675 C295.41465178 161.82691867 309.71175768 151.67330184 319.71912003 136.68500233 C331.48162664 117.85922581 334.43672122 94.06435379 329.56287003 72.50922108 C328.02469129 66.13921439 326.10007886 60.07676067 323.31287003 54.13422108 C322.84687393 52.96439686 322.84687393 52.96439686 322.37146378 51.77093983 C317.62896353 40.79843926 307.90208663 30.63246816 297.31287003 25.13422108 C296.32287003 24.61343983 295.33287003 24.09265858 294.31287003 23.55609608 C274.61581279 14.16351786 252.47912242 15.6892749 231.19733047 15.81165028 C227.98627331 15.82521222 224.7753542 15.81988265 221.56428146 15.81452179 C218.46222973 15.81118826 215.36026378 15.81779501 212.2582283 15.82765102 C210.78143639 15.83149043 209.30463495 15.83265648 207.8278389 15.83106518 C205.78050956 15.83069515 203.73319288 15.84477769 201.6859169 15.85956287 C199.94320511 15.86647396 199.94320511 15.86647396 198.16528702 15.87352467 C195.11164666 15.92410951 195.11164666 15.92410951 192.31287003 18.13422108 Z M192.31287003 185.13422108 C191.28357436 188.22210807 191.18712812 190.33014093 191.18588638 193.56577015 C191.18306656 194.6949184 191.18024673 195.82406666 191.17734146 196.98743153 C191.17936569 198.22777149 191.18138992 199.46811146 191.18347549 200.74603748 C191.18172318 202.05231098 191.17997086 203.35858448 191.17816544 204.70444202 C191.1735959 208.29674689 191.17538129 211.8890231 191.17854452 215.48132849 C191.18108222 219.26262996 191.17872558 223.04392903 191.17715836 226.8252306 C191.17533588 233.19922796 191.1777399 239.57321376 191.18249893 245.94720936 C191.18789039 253.2511749 191.18621698 260.55511229 191.18067253 267.8590771 C191.1760816 274.16521109 191.17552113 280.47133677 191.1781112 286.7774719 C191.17964821 290.52686194 191.17994148 294.27623896 191.17657471 298.02562809 C191.16588604 312.13724183 191.20754145 326.24808436 191.63367081 340.35443592 C191.65563459 341.38018538 191.67759838 342.40593483 191.70022774 343.4627676 C191.84901008 350.37556632 191.84901008 350.37556632 195.31287003 356.13422108 C200.21723935 358.8712912 204.57851471 359.57766028 210.10217667 359.55414295 C211.22113075 359.56684727 211.22113075 359.56684727 212.36268997 359.57980824 C214.81631207 359.60309533 217.26930217 359.60420093 219.72302628 359.60297108 C221.45393998 359.61008772 223.18485138 359.61778886 224.91576004 359.62604237 C228.54795232 359.6394757 232.17992748 359.64106564 235.8121376 359.63519764 C239.49443885 359.63051535 243.17587282 359.64413939 246.85803604 359.67621326 C279.88338874 359.96073266 309.11296026 358.77466774 334.12537003 334.57172108 C346.35059297 322.4355708 351.80902049 305.5633371 355.31287003 289.13422108 C355.51525284 288.18676014 355.71763565 287.2392992 355.92615128 286.26312733 C357.61968948 272.56086364 356.90510986 258.44572452 353.31287003 245.13422108 C353.04603409 244.03078358 352.77919815 242.92734608 352.50427628 241.79047108 C347.79238289 224.19940243 335.32014082 208.95070213 319.79724503 199.62250233 C317.00659391 198.03980448 314.18064438 196.5720153 311.31287003 195.13422108 C310.49044815 194.70109608 309.66802628 194.26797108 308.82068253 193.82172108 C301.91509214 190.5431025 294.76705763 188.9424123 287.31287003 187.38422108 C286.33559952 187.17337879 285.35832901 186.96253651 284.35144424 186.74530506 C266.29869938 183.20757047 247.51274233 183.97273149 229.20788956 184.00384998 C225.39518765 184.00928189 221.58259996 184.00383329 217.76990128 183.99750233 C215.32849477 183.99816201 212.88708833 183.99944089 210.44568253 184.00140858 C209.31445969 183.99938435 208.18323685 183.99736012 207.01773453 183.99527454 C202.00990794 184.01022071 197.23096271 184.05547585 192.31287003 185.13422108 Z " fill="#3D3B40" transform="translate(121.68712997436523,5.865778923034668)"/>
<path d="M0 0 C37.62353579 -0.0457584 75.24706739 -0.08100952 112.87062536 -0.10213066 C117.3104788 -0.10463213 121.75033219 -0.10722077 126.19018555 -0.10986328 C127.51605118 -0.11065021 127.51605118 -0.11065021 128.86870197 -0.11145304 C143.18868876 -0.12016024 157.50865952 -0.13593196 171.82863679 -0.15430559 C186.51769112 -0.17299587 201.20673706 -0.18411488 215.8958028 -0.18817699 C224.96277766 -0.19092386 234.02970723 -0.1996057 243.09666816 -0.21583293 C249.31070093 -0.22638904 255.52471022 -0.22960374 261.73875131 -0.22700275 C265.32614886 -0.22571932 268.91346715 -0.22771354 272.50085068 -0.23841095 C276.38773758 -0.24991702 280.27452063 -0.24598481 284.16142273 -0.24050903 C285.86715746 -0.24924756 285.86715746 -0.24924756 287.60735148 -0.25816262 C288.64839181 -0.25418052 289.68943215 -0.25019842 290.76201916 -0.24609566 C291.6592983 -0.2468551 292.55657744 -0.24761454 293.48104686 -0.24839699 C296.28481275 0.02808573 298.44428941 0.84176981 301 2 C301 2.33 301 2.66 301 3 C202.33 2.67 103.66 2.34 2 2 C1.67 2.99 1.34 3.98 1 5 C0.67 5 0.34 5 0 5 C0 3.35 0 1.7 0 0 Z " fill="#2F2B31" transform="translate(117,6)"/>
<path d="M0 0 C22.20926744 -0.0467043 44.41852679 -0.08198115 66.62783337 -0.10362434 C76.9398125 -0.1139404 87.25176114 -0.12800704 97.5637207 -0.15087891 C106.55078807 -0.17080268 115.53783335 -0.18371404 124.52492219 -0.18817699 C129.28425824 -0.19078608 134.0435311 -0.19692546 138.80284691 -0.21146011 C143.28185975 -0.225028 147.76078332 -0.22922424 152.23981476 -0.22621536 C153.8841405 -0.22676588 155.5284692 -0.23074805 157.17277718 -0.23841095 C159.41759661 -0.24835982 161.6620789 -0.24596917 163.90690613 -0.24050903 C165.16330997 -0.24235262 166.4197138 -0.24419621 167.71419048 -0.24609566 C170.9088622 -0.0068259 173.1291317 0.62510857 176 2 C176 2.33 176 2.66 176 3 C159.6041351 2.85765824 143.20830441 2.71164763 126.8125 2.5625 C125.60069942 2.55147877 124.38889885 2.54045753 123.14037704 2.52910233 C91.36329319 2.23916247 59.58732142 1.91858285 27.8125 1.4375 C26.71225683 1.4208473 26.71225683 1.4208473 25.58978653 1.40385818 C17.05977587 1.27431468 8.52984174 1.14026257 0 1 C0 0.67 0 0.34 0 0 Z " fill="#363237" transform="translate(242,6)"/>
<path d="M0 0 C0.33 0 0.66 0 1 0 C1 1.98 1 3.96 1 6 C61.39 5.67 121.78 5.34 184 5 C184 4.67 184 4.34 184 4 C190.93 4.33 197.86 4.66 205 5 C205 5.33 205 5.66 205 6 C199.11737953 6.73024409 193.40042588 7.14368522 187.47679138 7.12025452 C186.26469225 7.12153615 186.26469225 7.12153615 185.02810627 7.12284368 C182.3474089 7.1244777 179.6667755 7.11901148 176.98608398 7.11352539 C175.05374656 7.11324304 173.12140902 7.11340218 171.18907166 7.1139679 C165.9624891 7.11425401 160.73592965 7.10838725 155.50935245 7.10139394 C150.04009542 7.09512953 144.57083782 7.09455416 139.10157776 7.09336853 C128.75332675 7.09026431 118.40508635 7.08206319 108.05684 7.07201904 C96.27209273 7.06082966 84.48734495 7.05534034 72.70259368 7.05032361 C48.46838992 7.03987981 24.23419555 7.02229799 0 7 C0 4.69 0 2.38 0 0 Z " fill="#5D585C" transform="translate(231,372)"/>
<path d="M0 0 C1.32 0.33 2.64 0.66 4 1 C3.34 1 2.68 1 2 1 C2.66 1.99 3.32 2.98 4 4 C6.44003804 4.30708631 8.63008134 4.41578478 11.07400513 4.39872742 C11.8107534 4.40537424 12.54750168 4.41202107 13.30657566 4.41886932 C15.78801824 4.43759841 18.26898285 4.43488747 20.75048828 4.43237305 C22.52416673 4.44138419 24.29783893 4.4517098 26.07150269 4.46325684 C30.89769287 4.49092918 35.72376524 4.50012518 40.55002451 4.50611091 C45.5896211 4.51546805 50.62912874 4.54166916 55.66867065 4.56611633 C65.21673128 4.60985847 74.76477472 4.63835798 84.31290519 4.66143972 C95.18099406 4.68845013 106.04899379 4.73236412 116.91701913 4.77772844 C139.27796449 4.87068516 161.63893781 4.94231531 184 5 C184 5.33 184 5.66 184 6 C123.28 6 62.56 6 0 6 C0 4.02 0 2.04 0 0 Z " fill="#1E171D" transform="translate(232,372)"/>
<path d="M0 0 C0 0.33 0 0.66 0 1 C-13.53 1 -27.06 1 -41 1 C-41 0.34 -41 -0.32 -41 -1 C-27.07353109 -1.94233662 -13.8190355 -2.08751972 0 0 Z " fill="#302A2F" transform="translate(392,189)"/>
<path d="M0 0 C5.71007888 5.71007888 5.04871076 18.18916213 5.09765625 25.7890625 C5.09112827 27.73439934 5.07938155 29.67972545 5.0625 31.625 C5.05798828 32.62917969 5.05347656 33.63335937 5.04882812 34.66796875 C5.03718967 37.11204471 5.0208424 39.5559882 5 42 C4.67 42 4.34 42 4 42 C3.97494385 41.36908447 3.9498877 40.73816895 3.92407227 40.08813477 C3.80845863 37.24603175 3.68557684 34.40428917 3.5625 31.5625 C3.52318359 30.56927734 3.48386719 29.57605469 3.44335938 28.55273438 C3.40146484 27.60849609 3.35957031 26.66425781 3.31640625 25.69140625 C3.27974854 24.81685791 3.24309082 23.94230957 3.20532227 23.04125977 C3.21818934 21.0072598 3.21818934 21.0072598 2 20 C1.40708671 17.78391321 0.87561749 15.55124271 0.375 13.3125 C0.09398437 12.09175781 -0.18703125 10.87101562 -0.4765625 9.61328125 C-0.99189719 6.05593361 -0.80162522 3.47905345 0 0 Z " fill="#4F4C52" transform="translate(529,249)"/>
<path d="M0 0 C0.33 0 0.66 0 1 0 C1.8632601 3.71888866 2.11721556 7.14296488 2.09765625 10.95703125 C2.09443359 12.06884766 2.09121094 13.18066406 2.08789062 14.32617188 C2.07951172 15.47666016 2.07113281 16.62714844 2.0625 17.8125 C2.05798828 18.98232422 2.05347656 20.15214844 2.04882812 21.35742188 C2.0370693 24.23833358 2.02063426 27.11914044 2 30 C1.67 30 1.34 30 1 30 C-2.02065223 19.99408949 -1.11351517 10.28013116 0 0 Z " fill="#6F656C" transform="translate(506,80)"/>
<path d="M0 0 C0.33 0.99 0.66 1.98 1 3 C0.01 3.99 -0.98 4.98 -2 6 C-1.34 6.66 -0.68 7.32 0 8 C-2.97 7.67 -5.94 7.34 -9 7 C-8.67 5.68 -8.34 4.36 -8 3 C-8.66 2.34 -9.32 1.68 -10 1 C-6.78548731 -0.60725635 -3.56387464 -0.05748185 0 0 Z " fill="#4B474D" transform="translate(240,8)"/>
<path d="M0 0 C0.99 0.33 1.98 0.66 3 1 C3.2475 1.721875 3.495 2.44375 3.75 3.1875 C5.53858195 7.21180939 8.57695419 9.33661409 12 12 C11.67 12.99 11.34 13.98 11 15 C9.22750476 13.5645497 7.45706424 12.12656197 5.6875 10.6875 C4.70136719 9.88699219 3.71523438 9.08648437 2.69921875 8.26171875 C0.68397834 6.57311644 -1.19488009 4.90369301 -3 3 C-2.01 2.01 -1.02 1.02 0 0 Z " fill="#4D484D" transform="translate(444,202)"/>
<path d="M0 0 C0 4.91886939 -1.94063363 8.24532309 -5 12 C-5 11.34 -5 10.68 -5 10 C-6.36125 10.7734375 -6.36125 10.7734375 -7.75 11.5625 C-11.16419665 13.07262544 -11.68604014 13.08784335 -15 12 C-14.25234375 11.46890625 -13.5046875 10.9378125 -12.734375 10.390625 C-11.74953125 9.68421875 -10.7646875 8.9778125 -9.75 8.25 C-8.77546875 7.55390625 -7.8009375 6.8578125 -6.796875 6.140625 C-4.30766704 4.23547701 -2.15028061 2.27315379 0 0 Z " fill="#4E4B4E" transform="translate(433,152)"/>
<path d="M0 0 C0.33 0 0.66 0 1 0 C2.00025163 7.89150047 2.12008681 15.67802068 2.0625 23.625 C2.05798828 24.81996094 2.05347656 26.01492187 2.04882812 27.24609375 C2.03715603 30.16411647 2.02078326 33.08203037 2 36 C1.01 35.34 0.02 34.68 -1 34 C-1.19560293 31.36751855 -1.20770245 28.98767094 -1.07421875 26.3671875 C-1.04777786 25.61535187 -1.02133698 24.86351624 -0.99409485 24.08889771 C-0.90620028 21.68346885 -0.79710197 19.27952817 -0.6875 16.875 C-0.62425458 15.24614737 -0.56238807 13.61724057 -0.50195312 11.98828125 C-0.35063926 7.99138279 -0.18030187 3.99569151 0 0 Z " fill="#4A4548" transform="translate(312,141)"/>
<path d="M0 0 C0.33 0 0.66 0 1 0 C1.33675279 2.89547264 1.66951734 5.79131072 2 8.6875 C2.14308594 9.91243164 2.14308594 9.91243164 2.2890625 11.16210938 C2.73870522 15.12860052 3.13034543 19.00002463 3 23 C2.01 23.33 1.02 23.66 0 24 C-0.76299944 15.85351368 -1.21521251 8.11388044 0 0 Z " fill="#5E5C5E" transform="translate(57,377)"/>
<path d="M0 0 C1.125 3.75 1.125 3.75 0 6 C0.99 6.33 1.98 6.66 3 7 C-1.75 10 -1.75 10 -4 10 C-4.103125 10.763125 -4.20625 11.52625 -4.3125 12.3125 C-5.04364039 15.17059424 -5.76951913 16.15742885 -8 18 C-8.671875 16.2421875 -8.671875 16.2421875 -9 14 C-7.890625 12.0703125 -7.890625 12.0703125 -6.25 10.125 C-3.65828951 6.9064572 -1.70529518 3.78954485 0 0 Z " fill="#706E70" transform="translate(445,134)"/>
<path d="M0 0 C6.93 0.33 13.86 0.66 21 1 C21 1.33 21 1.66 21 2 C12.02243049 3.3300103 3.05168034 3.08788039 -6 3 C-6 2.67 -6 2.34 -6 2 C-4.02 1.67 -2.04 1.34 0 1 C0 0.67 0 0.34 0 0 Z " fill="#9D979B" transform="translate(415,376)"/>
<path d="M0 0 C0.66 0 1.32 0 2 0 C0.5316967 3.77329341 -1.36881283 5.20547208 -4.8125 7.25 C-6.09060547 8.03117188 -6.09060547 8.03117188 -7.39453125 8.828125 C-10.17652346 10.07939586 -11.98798767 10.23793275 -15 10 C-12.49720383 7.15668734 -9.71102186 5.62663153 -6.375 3.875 C-2.97245617 2.24341581 -2.97245617 2.24341581 0 0 Z " fill="#5D565D" transform="translate(474,161)"/>
<path d="M0 0 C1.32 0.33 2.64 0.66 4 1 C4 2.65 4 4.3 4 6 C4.99 6.33 5.98 6.66 7 7 C8.1875 10.0625 8.1875 10.0625 9 13 C6.14059964 12.3645777 4.44177401 11.65348679 2.77734375 9.19140625 C1.10621088 5.92700692 0 3.71683985 0 0 Z " fill="#504C51" transform="translate(6,400)"/>
<path d="M0 0 C0.66 0.99 1.32 1.98 2 3 C0.8553125 3.804375 0.8553125 3.804375 -0.3125 4.625 C-3.22864474 7.20205814 -4.4705622 9.45814404 -6 13 C-6.99 13 -7.98 13 -9 13 C-7.47987323 7.59510481 -3.72614782 4.01507372 0 0 Z " fill="#565257" transform="translate(15,352)"/>
<path d="M0 0 C2.875 -0.1875 2.875 -0.1875 6 0 C6.66 0.99 7.32 1.98 8 3 C10.56282742 3.72965366 10.56282742 3.72965366 13 4 C13 4.66 13 5.32 13 6 C14.32 6.66 15.64 7.32 17 8 C16.34 8.66 15.68 9.32 15 10 C14.33613281 9.51789062 13.67226563 9.03578125 12.98828125 8.5390625 C12.10527344 7.90742187 11.22226562 7.27578125 10.3125 6.625 C9.44238281 5.99851562 8.57226562 5.37203125 7.67578125 4.7265625 C5.16403048 3.10584157 2.80700813 2.00141912 0 1 C0 0.67 0 0.34 0 0 Z " fill="#6B6266" transform="translate(414,29)"/>
<path d="M0 0 C5.44693314 -0.09688221 10.63904667 -0.12862175 16 1 C16.33 1.99 16.66 2.98 17 4 C11.39 3.34 5.78 2.68 0 2 C0 1.34 0 0.68 0 0 Z " fill="#6C686B" transform="translate(386,21)"/>
<path d="M0 0 C0.33 0 0.66 0 1 0 C1.25287193 6.06892629 0.69832609 11.16200408 -1 17 C-1.99 17 -2.98 17 -4 17 C-2.91103333 11.24237834 -1.70663707 5.60752181 0 0 Z " fill="#666265" transform="translate(143,388)"/>
<path d="M0 0 C2.66223934 2.28399769 3.48155948 3.94721689 4.125 7.375 C4.2796875 8.16519531 4.434375 8.95539063 4.59375 9.76953125 C4.79484375 10.87361328 4.79484375 10.87361328 5 12 C5.309375 13.5159375 5.309375 13.5159375 5.625 15.0625 C5.74875 15.701875 5.8725 16.34125 6 17 C3 16 3 16 2.05078125 14.1796875 C0.46995165 9.24482262 -0.33070393 5.18102823 0 0 Z " fill="#514D51" transform="translate(58,398)"/>
<path d="M0 0 C0.33 0 0.66 0 1 0 C1.02505615 0.56396484 1.0501123 1.12792969 1.07592773 1.70898438 C1.19318301 4.30614882 1.31531266 6.9030631 1.4375 9.5 C1.47681641 10.386875 1.51613281 11.27375 1.55664062 12.1875 C1.81084087 17.50615127 2.26676337 22.7256256 3 28 C2.34 28 1.68 28 1 28 C-0.0592918 24.82212459 -0.11458939 22.57411057 -0.09765625 19.23828125 C-0.09443359 18.12001953 -0.09121094 17.00175781 -0.08789062 15.84960938 C-0.07951172 14.68236328 -0.07113281 13.51511719 -0.0625 12.3125 C-0.05573242 10.54422852 -0.05573242 10.54422852 -0.04882812 8.74023438 C-0.03703273 5.82677211 -0.0205727 2.91341137 0 0 Z " fill="#2A2428" transform="translate(5,372)"/>
<path d="M0 0 C0 3.38601598 -0.91499972 5.81281168 -2 9 C-2 9.66 -2 10.32 -2 11 C-4.31 10.67 -6.62 10.34 -9 10 C-8.06409496 8.8944811 -7.12620142 7.79064547 -6.1875 6.6875 C-5.66542969 6.07261719 -5.14335937 5.45773437 -4.60546875 4.82421875 C-3.12827531 3.14575321 -1.59960869 1.56117966 0 0 Z " fill="#5E5C5F" transform="translate(457,338)"/>
<path d="M0 0 C0.99 0.33 1.98 0.66 3 1 C2.07172661 2.79646436 1.13204162 4.58703557 0.1875 6.375 C-0.59560547 7.87160156 -0.59560547 7.87160156 -1.39453125 9.3984375 C-3 12 -3 12 -6 14 C-5.75 11.125 -5.75 11.125 -5 8 C-3.66666667 7.33333333 -2.33333333 6.66666667 -1 6 C-0.18415432 2.94091587 -0.18415432 2.94091587 0 0 Z " fill="#666266" transform="translate(497,134)"/>
<path d="M0 0 C2.69628591 0.98863817 3.79691111 1.62588888 5.1875 4.1875 C6.12754793 7.44151205 6.60462793 10.6393374 7 14 C0 5.55172414 0 5.55172414 0 0 Z " fill="#524F52" transform="translate(464,224)"/>
<path d="M0 0 C-1.93356782 0.69848264 -3.87202298 1.38344814 -5.8125 2.0625 C-6.89144531 2.44535156 -7.97039062 2.82820313 -9.08203125 3.22265625 C-12 4 -12 4 -15 3 C-15 2.34 -15 1.68 -15 1 C-13.06697628 0.4425699 -11.12835147 -0.09546757 -9.1875 -0.625 C-8.10855469 -0.92664063 -7.02960938 -1.22828125 -5.91796875 -1.5390625 C-3 -2 -3 -2 0 0 Z " fill="#645F65" transform="translate(130,448)"/>
<path d="M0 0 C5.15171623 -0.09038099 9.91913204 0.15318867 15 1 C15 1.99 15 2.98 15 4 C9.9697924 3.47462276 4.98114761 2.89405214 0 2 C0 1.34 0 0.68 0 0 Z " fill="#5C575B" transform="translate(396,190)"/>
<path d="M0 0 C0.33 0 0.66 0 1 0 C1.88701576 7.19201969 2.26613747 13.06828537 0 20 C-0.33 20 -0.66 20 -1 20 C-1.18451025 6.3667426 -1.18451025 6.3667426 0 0 Z " fill="#6B676A" transform="translate(146,366)"/>
<path d="M0 0 C3.13837611 -0.3077917 4.59343628 -0.27813784 7.23828125 1.53125 C7.92277344 2.1809375 8.60726563 2.830625 9.3125 3.5 C10.00988281 4.1496875 10.70726562 4.799375 11.42578125 5.46875 C11.94527344 5.9740625 12.46476562 6.479375 13 7 C11.26171875 7.67578125 11.26171875 7.67578125 9 8 C6.89453125 6.85546875 6.89453125 6.85546875 4.8125 5.1875 C4.11769531 4.64480469 3.42289062 4.10210937 2.70703125 3.54296875 C1 2 1 2 0 0 Z " fill="#615E61" transform="translate(491,202)"/>
<path d="M0 0 C0.99 0.33 1.98 0.66 3 1 C3 1.66 3 2.32 3 3 C3.99 3.33 4.98 3.66 6 4 C7.0625 5.875 7.0625 5.875 8 8 C8.99 9.485 8.99 9.485 10 11 C9.34 11 8.68 11 8 11 C8 12.65 8 14.3 8 16 C6.36069893 13.5410484 5.4977145 11.84082063 4.5625 9.125 C3.36922252 5.82522249 1.93313772 2.94573366 0 0 Z " fill="#6F6B6F" transform="translate(140,25)"/>
<path d="M0 0 C0 0.33 0 0.66 0 1 C-1.10408203 1.19916016 -1.10408203 1.19916016 -2.23046875 1.40234375 C-3.20628906 1.57894531 -4.18210938 1.75554688 -5.1875 1.9375 C-6.15042969 2.11152344 -7.11335937 2.28554688 -8.10546875 2.46484375 C-10.74239972 2.9523735 -13.3719905 3.46671105 -16 4 C-15 1 -15 1 -13.0625 -0.25 C-8.60405097 -1.34186507 -4.50284228 -0.64701035 0 0 Z " fill="#736E71" transform="translate(231,15)"/>
<path d="M0 0 C0.8125 1.6875 0.8125 1.6875 1 4 C-1.46026571 6.87030999 -3.85489214 8.90326143 -7 11 C-6.125 6.25 -6.125 6.25 -5 4 C-4.01 4 -3.02 4 -2 4 C-1.34 2.68 -0.68 1.36 0 0 Z " fill="#635F63" transform="translate(512,337)"/>
<path d="M0 0 C2.92602095 1.46301048 3.09705209 3.41022764 4.1875 6.4375 C4.55230469 7.42621094 4.91710937 8.41492188 5.29296875 9.43359375 C6 12 6 12 5 14 C2.26038401 12.630192 1.72468432 10.6629885 0.59765625 7.921875 C-0.23605798 5.2409116 -0.20345414 2.78053992 0 0 Z " fill="#686366" transform="translate(523,234)"/>
<path d="M0 0 C-1 3 -1 3 -4.375 4.75 C-8 6 -8 6 -11 5 C-7.92351092 1.43774949 -4.70156256 0 0 0 Z " fill="#5A5259" transform="translate(141,441)"/>
<path d="M0 0 C2.2477975 2.05233685 3.0022242 3.00667261 4 6 C7.00007271 7.70855022 7.00007271 7.70855022 10 9 C6.06329512 10.31223496 3.87511856 9.24296256 0 8 C0 5.36 0 2.72 0 0 Z " fill="#807B7F" transform="translate(116,7)"/>
<path d="M0 0 C1.75032844 0.14183696 3.50025534 0.28863429 5.25 0.4375 C6.71179688 0.55931641 6.71179688 0.55931641 8.203125 0.68359375 C10.56461753 0.95074584 12.71901065 1.35371968 15 2 C15 2.66 15 3.32 15 4 C12.87422093 3.9131724 10.74930419 3.8050049 8.625 3.6875 C7.44164062 3.62949219 6.25828125 3.57148438 5.0390625 3.51171875 C3.53472656 3.25841797 3.53472656 3.25841797 2 3 C1.34 2.01 0.68 1.02 0 0 Z " fill="#736F73" transform="translate(414,7)"/>
<path d="M0 0 C1.65 0 3.3 0 5 0 C1.63263969 2.82858266 -1.87451958 4.4998253 -6 6 C-6.99 5.67 -7.98 5.34 -9 5 C-7.875 3.5 -7.875 3.5 -6 2 C-2.8125 1.8125 -2.8125 1.8125 0 2 C0 1.34 0 0.68 0 0 Z " fill="#60585C" transform="translate(475,364)"/>
<path d="M0 0 C4.31395349 8.01162791 4.31395349 8.01162791 3.625 12.375 C3.41875 12.91125 3.2125 13.4475 3 14 C0.61116832 11.61116832 0.44500885 10.27192547 -0.1875 7 C-0.36667969 6.113125 -0.54585938 5.22625 -0.73046875 4.3125 C-1 2 -1 2 0 0 Z " fill="#5C595C" transform="translate(502,66)"/>
<path d="M0 0 C1.98 0 3.96 0 6 0 C6 0.99 6 1.98 6 3 C5.01 3.33 4.02 3.66 3 4 C2.67 4.66 2.34 5.32 2 6 C1.34 5.34 0.68 4.68 0 4 C0 2.68 0 1.36 0 0 Z " fill="#363237" transform="translate(441,49)"/>
<path d="M0 0 C-0.99 0 -1.98 0 -3 0 C-3 0.99 -3 1.98 -3 3 C-6.63 2.67 -10.26 2.34 -14 2 C-14 1.67 -14 1.34 -14 1 C-12.41913952 0.63495397 -10.83516093 0.28339494 -9.25 -0.0625 C-8.36828125 -0.25972656 -7.4865625 -0.45695312 -6.578125 -0.66015625 C-4.01320972 -0.99825872 -2.42908361 -0.81158635 0 0 Z " fill="#616062" transform="translate(418,363)"/>
<path d="M0 0 C0.66 0.33 1.32 0.66 2 1 C1.67 1.99 1.34 2.98 1 4 C1.66 4.33 2.32 4.66 3 5 C1.35 6.98 -0.3 8.96 -2 11 C-2.95465783 8.83032311 -3.14401212 7.43671207 -2.3984375 5.17578125 C-1.64129615 3.4315257 -0.82390802 1.71372869 0 0 Z " fill="#312D31" transform="translate(261,354)"/>
<path d="M0 0 C5.57142857 5.14285714 5.57142857 5.14285714 6 9 C5.01 9.495 5.01 9.495 4 10 C3.731875 9.195625 3.46375 8.39125 3.1875 7.5625 C2.795625 6.716875 2.40375 5.87125 2 5 C1.01 4.67 0.02 4.34 -1 4 C-0.67 2.68 -0.34 1.36 0 0 Z " fill="#5A5659" transform="translate(515,222)"/>
<path d="M0 0 C3.057952 1.73559438 5.63379989 3.38472619 8 6 C7.67 6.99 7.34 7.98 7 9 C5.82460004 8.07347299 4.65989423 7.13336613 3.5 6.1875 C2.52546875 5.40439453 2.52546875 5.40439453 1.53125 4.60546875 C0 3 0 3 0 0 Z " fill="#605960" transform="translate(448,208)"/>
<path d="M0 0 C0.99 0 1.98 0 3 0 C3.33 0.99 3.66 1.98 4 3 C-2.625 6.125 -2.625 6.125 -6 5 C-5.67 4.34 -5.34 3.68 -5 3 C-2.4375 2.375 -2.4375 2.375 0 2 C0 1.34 0 0.68 0 0 Z " fill="#686266" transform="translate(453,171)"/>
<path d="M0 0 C0.99 0.33 1.98 0.66 3 1 C4.1875 4.0625 4.1875 4.0625 5 7 C4.67 7 4.34 7 4 7 C3.67 8.65 3.34 10.3 3 12 C2.67 12 2.34 12 2 12 C1.34 8.04 0.68 4.08 0 0 Z " fill="#676063" transform="translate(449,70)"/>
<path d="M0 0 C3.00617269 3.00617269 2.59585316 5.82381598 3 10 C2.01 9.67 1.02 9.34 0 9 C-1.125 2.25 -1.125 2.25 0 0 Z " fill="#635D61" transform="translate(529,249)"/>
<path d="M0 0 C3.35808746 1.46916326 3.63978541 2.10160882 5 5.3125 C3.51800098 4.86340939 2.03944764 4.40293436 0.5625 3.9375 C-0.26121094 3.68226562 -1.08492187 3.42703125 -1.93359375 3.1640625 C-4 2.3125 -4 2.3125 -5 0.3125 C-3 -0.6875 -3 -0.6875 0 0 Z " fill="#575256" transform="translate(131,15.6875)"/>
<path d="M0 0 C2.475 0.495 2.475 0.495 5 1 C5.33 1.99 5.66 2.98 6 4 C6.99 4.33 7.98 4.66 9 5 C6.03 4.67 3.06 4.34 0 4 C0 2.68 0 1.36 0 0 Z " fill="#464447" transform="translate(314,361)"/>
<path d="M0 0 C0.33 0 0.66 0 1 0 C1.0270043 1.45823212 1.04639787 2.91660675 1.0625 4.375 C1.07410156 5.18710938 1.08570313 5.99921875 1.09765625 6.8359375 C1 9 1 9 0 11 C-0.66 11 -1.32 11 -2 11 C-1.85957123 9.35369672 -1.71250671 7.70795821 -1.5625 6.0625 C-1.48128906 5.14597656 -1.40007812 4.22945313 -1.31640625 3.28515625 C-1 1 -1 1 0 0 Z " fill="#555052" transform="translate(505,111)"/>
<path d="M0 0 C1.32 0 2.64 0 4 0 C6.3125 2.8125 6.3125 2.8125 8 6 C7.67 6.99 7.34 7.98 7 9 C5.83037314 7.69013727 4.66437056 6.3770374 3.5 5.0625 C2.8503125 4.33160156 2.200625 3.60070313 1.53125 2.84765625 C0 1 0 1 0 0 Z " fill="#625961" transform="translate(430,39)"/>
<path d="M0 0 C2.52349243 3.12432397 4.27256146 6.38060496 6 10 C4.1875 9.9375 4.1875 9.9375 2 9 C0.1875 5.5625 0.1875 5.5625 -1 2 C-0.67 1.34 -0.34 0.68 0 0 Z " fill="#6D6A6B" transform="translate(64,415)"/>
<path d="M0 0 C1.98 0.99 1.98 0.99 4 2 C4 2.66 4 3.32 4 4 C4.99 3.67 5.98 3.34 7 3 C7.33 3.99 7.66 4.98 8 6 C7.01 6 6.02 6 5 6 C4.67 6.66 4.34 7.32 4 8 C0 2.25 0 2.25 0 0 Z " fill="#645F64" transform="translate(12,413)"/>
<path d="M0 0 C0.33 0 0.66 0 1 0 C1.33 3.96 1.66 7.92 2 12 C1.01 12.33 0.02 12.66 -1 13 C-0.67 8.71 -0.34 4.42 0 0 Z " fill="#717071" transform="translate(58,388)"/>
<path d="M0 0 C1.07310858 3.27185553 0.89263102 5.42947592 0.0625 8.75 C-0.22947266 9.94882812 -0.22947266 9.94882812 -0.52734375 11.171875 C-0.68332031 11.77515625 -0.83929688 12.3784375 -1 13 C-1.66 13 -2.32 13 -3 13 C-2.68991116 11.39536551 -2.37683713 9.79130769 -2.0625 8.1875 C-1.88847656 7.29417969 -1.71445312 6.40085937 -1.53515625 5.48046875 C-1 3 -1 3 0 0 Z " fill="#807C7E" transform="translate(474,304)"/>
<path d="M0 0 C-0.33 0.99 -0.66 1.98 -1 3 C-1.66 3 -2.32 3 -3 3 C-3 3.66 -3 4.32 -3 5 C-5.31 4.67 -7.62 4.34 -10 4 C-6.86268382 1.90845588 -3.85464592 0 0 0 Z " fill="#565356" transform="translate(413,167)"/>
<path d="M0 0 C1.32 0.33 2.64 0.66 4 1 C4 1.99 4 2.98 4 4 C3.34 4.66 2.68 5.32 2 6 C1.34 6 0.68 6 0 6 C0 4.02 0 2.04 0 0 Z " fill="#353237" transform="translate(138,409)"/>
<path d="M0 0 C0.33 0 0.66 0 1 0 C1.33 3.63 1.66 7.26 2 11 C1.01 10.34 0.02 9.68 -1 9 C-0.67 6.03 -0.34 3.06 0 0 Z " fill="#5B585C" transform="translate(312,166)"/>
<path d="M0 0 C0.99 0.33 1.98 0.66 3 1 C2.67 4.63 2.34 8.26 2 12 C1.67 12 1.34 12 1 12 C0.67 8.04 0.34 4.08 0 0 Z " fill="#767176" transform="translate(262,40)"/>
<path d="M0 0 C3.36720387 1.39332574 4.9859524 2.9789286 7 6 C4.03824877 5.38722388 2.61941217 4.74627478 0 3 C0 2.01 0 1.02 0 0 Z " fill="#656265" transform="translate(476,31)"/>
<path d="M0 0 C0.66 0.33 1.32 0.66 2 1 C2.625 3.0625 2.625 3.0625 3 5 C1.125 5.625 1.125 5.625 -1 6 C-1.66 5.34 -2.32 4.68 -3 4 C-2.01 2.68 -1.02 1.36 0 0 Z " fill="#373038" transform="translate(129,441)"/>
<path d="M0 0 C0.66 0.99 1.32 1.98 2 3 C-0.31 3.66 -2.62 4.32 -5 5 C-3.35 3.35 -1.7 1.7 0 0 Z M2 0 C2.99 0.33 3.98 0.66 5 1 C4.01 1.33 3.02 1.66 2 2 C2 1.34 2 0.68 2 0 Z " fill="#635556" transform="translate(126,428)"/>
<path d="M0 0 C0.66 0.99 1.32 1.98 2 3 C0.625 5.5 0.625 5.5 -1 8 C-1.66 8 -2.32 8 -3 8 C-1.125 2.25 -1.125 2.25 0 0 Z " fill="#5F5A5D" transform="translate(137,409)"/>
<path d="M0 0 C0.33 0.99 0.66 1.98 1 3 C-0.65 3 -2.3 3 -4 3 C-4 3.66 -4 4.32 -4 5 C-4.99 5 -5.98 5 -7 5 C-6.3125 3.0625 -6.3125 3.0625 -5 1 C-2.375 0.25 -2.375 0.25 0 0 Z " fill="#312B30" transform="translate(479,361)"/>
<path d="M0 0 C0.33 0 0.66 0 1 0 C0.67 4.29 0.34 8.58 0 13 C-0.33 13 -0.66 13 -1 13 C-1.33 10.36 -1.66 7.72 -2 5 C-1.34 5 -0.68 5 0 5 C0 3.35 0 1.7 0 0 Z " fill="#5E5B5D" transform="translate(195,347)"/>
<path d="M0 0 C4.455 0.99 4.455 0.99 9 2 C7.02 2.99 7.02 2.99 5 4 C2 3 2 3 0 2 C0 1.34 0 0.68 0 0 Z " fill="#767072" transform="translate(452,183)"/>
<path d="M0 0 C0 3 0 3 -1 6 C-2.65 6.33 -4.3 6.66 -6 7 C-4.02 4.69 -2.04 2.38 0 0 Z " fill="#696668" transform="translate(433,152)"/>
<path d="M0 0 C0.99 0 1.98 0 3 0 C2.8125 1.875 2.8125 1.875 2 4 C-0.5625 5.25 -0.5625 5.25 -3 6 C-2.67 5.01 -2.34 4.02 -2 3 C-1.34 2.67 -0.68 2.34 0 2 C0 1.34 0 0.68 0 0 Z " fill="#807980" transform="translate(148,434)"/>
<path d="M0 0 C0.33 1.32 0.66 2.64 1 4 C-0.98 4.99 -2.96 5.98 -5 7 C-5 6.01 -5 5.02 -5 4 C-2.5 1.8125 -2.5 1.8125 0 0 Z " fill="#4F4B4F" transform="translate(156,429)"/>
<path d="M0 0 C0.99 0 1.98 0 3 0 C1.92598892 2.91517292 1.22189824 4.77810176 -1 7 C-1.625 5.1875 -1.625 5.1875 -2 3 C-1.34 2.01 -0.68 1.02 0 0 Z " fill="#6B686A" transform="translate(179,400)"/>
<path d="M0 0 C0.33 0.66 0.66 1.32 1 2 C0.0625 4.125 0.0625 4.125 -1 6 C-1.99 6 -2.98 6 -4 6 C-2.25 1.125 -2.25 1.125 0 0 Z " fill="#676467" transform="translate(10,359)"/>
<path d="M0 0 C0.99 0.33 1.98 0.66 3 1 C2.1875 2.9375 2.1875 2.9375 1 5 C0.01 5.33 -0.98 5.66 -2 6 C-1.125 1.125 -1.125 1.125 0 0 Z " fill="#5A5659" transform="translate(438,146)"/>
<path d="" fill="#FFFFFF" transform="translate(0,0)"/>
<path d="" fill="#FFFFFF" transform="translate(0,0)"/>
<path d="" fill="#FFFFFF" transform="translate(0,0)"/>
<path d="" fill="#FFFFFF" transform="translate(0,0)"/>
<path d="" fill="#FFFFFF" transform="translate(0,0)"/>
<path d="" fill="#FFFFFF" transform="translate(0,0)"/>
<path d="" fill="#FFFFFF" transform="translate(0,0)"/>
<path d="" fill="#FFFFFF" transform="translate(0,0)"/>
<path d="" fill="#FFFFFF" transform="translate(0,0)"/>
<path d="" fill="#FFFFFF" transform="translate(0,0)"/>
<path d="" fill="#FFFFFF" transform="translate(0,0)"/>
<path d="" fill="#FFFFFF" transform="translate(0,0)"/>
<path d="" fill="#FFFFFF" transform="translate(0,0)"/>
<path d="" fill="#FFFFFF" transform="translate(0,0)"/>
<path d="" fill="#FFFFFF" transform="translate(0,0)"/>
<path d="" fill="#FFFFFF" transform="translate(0,0)"/>
<path d="" fill="#FFFFFF" transform="translate(0,0)"/>
<path d="" fill="#FFFFFF" transform="translate(0,0)"/>
<path d="" fill="#FFFFFF" transform="translate(0,0)"/>
<path d="" fill="#FFFFFF" transform="translate(0,0)"/>
<path d="" fill="#FFFFFF" transform="translate(0,0)"/>
<path d="" fill="#FFFFFF" transform="translate(0,0)"/>
<path d="" fill="#FFFFFF" transform="translate(0,0)"/>
<path d="" fill="#FFFFFF" transform="translate(0,0)"/>
<path d="" fill="#FFFFFF" transform="translate(0,0)"/>
<path d="" fill="#FFFFFF" transform="translate(0,0)"/>
<path d="" fill="#FFFFFF" transform="translate(0,0)"/>
<path d="" fill="#FFFFFF" transform="translate(0,0)"/>
<path d="" fill="#FFFFFF" transform="translate(0,0)"/>
<path d="" fill="#FFFFFF" transform="translate(0,0)"/>
<path d="" fill="#FFFFFF" transform="translate(0,0)"/>
<path d="" fill="#FFFFFF" transform="translate(0,0)"/>
<path d="" fill="#FFFFFF" transform="translate(0,0)"/>
<path d="" fill="#FFFFFF" transform="translate(0,0)"/>
<path d="" fill="#FFFFFF" transform="translate(0,0)"/>
<path d="" fill="#FFFFFF" transform="translate(0,0)"/>
<path d="" fill="#FFFFFF" transform="translate(0,0)"/>
<path d="" fill="#FFFFFF" transform="translate(0,0)"/>
<path d="" fill="#FFFFFF" transform="translate(0,0)"/>
<path d="" fill="#FFFFFF" transform="translate(0,0)"/>
<path d="" fill="#FFFFFF" transform="translate(0,0)"/>
<path d="" fill="#FFFFFF" transform="translate(0,0)"/>
<path d="" fill="#FFFFFF" transform="translate(0,0)"/>
<path d="" fill="#FFFFFF" transform="translate(0,0)"/>
<path d="" fill="#FFFFFF" transform="translate(0,0)"/>
<path d="" fill="#FFFFFF" transform="translate(0,0)"/>
<path d="" fill="#FFFFFF" transform="translate(0,0)"/>
<path d="" fill="#FFFFFF" transform="translate(0,0)"/>
<path d="" fill="#FFFFFF" transform="translate(0,0)"/>
<path d="" fill="#FFFFFF" transform="translate(0,0)"/>
<path d="" fill="#FFFFFF" transform="translate(0,0)"/>
</svg>
