<?xml version="1.0" encoding="utf-8"?>
<!DOCTYPE svg PUBLIC "-//W3C//DTD SVG 1.0//EN" "http://www.w3.org/TR/2001/REC-SVG-20010904/DTD/svg10.dtd">
<svg version="1.0" xmlns="http://www.w3.org/2000/svg" width="3152px" height="1236px" viewBox="0 0 3152 1236" preserveAspectRatio="xMidYMid meet">
 <g fill="#ffffff">
  <path d="M0 618.04 l0 -618.04 1576 0 1576 0 0 618.04 0 618.04 -1576 0 -1576 0 0 -618.04z m577.48 597.57 c18.15 -5.41 32.83 -21.05 32.83 -35.15 0 -7.92 -7.34 -17.96 -17 -23.18 -4.44 -2.51 -17.38 -7.15 -28.97 -10.43 -34.38 -9.66 -40.95 -14.49 -40.95 -28.97 0 -5.21 0.77 -11.01 1.93 -12.94 5.02 -9.46 43.46 -15.06 62.58 -9.08 10.04 3.09 12.75 2.70 12.75 -1.74 0 -1.74 -5.21 -4.44 -13.91 -6.95 -12.94 -4.06 -15.64 -4.25 -32.83 -2.32 -21.05 2.32 -29.16 6.18 -37.85 17.58 -4.06 5.41 -5.21 8.88 -5.21 17 0 8.69 0.77 11.01 5.79 16.22 8.11 8.50 16.03 12.17 39.98 18.35 33.61 8.69 41.14 14.87 39.40 32.64 -1.35 11.97 -5.02 15.84 -18.35 19.70 -13.33 4.06 -34.19 2.32 -52.92 -3.86 -12.55 -4.25 -16.22 -3.86 -14.29 1.55 1.16 3.09 20.67 10.43 33.41 12.55 14.87 2.51 22.40 2.32 33.61 -0.97z m181.16 -3.67 c14.10 -6.37 17.38 -9.46 14.10 -13.33 -1.93 -2.32 -3.86 -2.12 -11.97 2.12 -7.15 3.86 -13.52 5.41 -24.72 5.99 -27.81 1.55 -48.48 -8.50 -58.52 -28.39 -4.83 -9.27 -5.41 -12.75 -5.41 -28.58 0 -26.27 5.60 -37.08 24.91 -48.48 7.73 -4.44 11.01 -5.02 30.90 -5.79 20.67 -0.58 23.18 -0.39 31.48 4.06 8.69 4.44 9.27 4.44 12.36 1.16 2.70 -3.09 2.51 -3.67 -5.41 -8.11 -16.22 -9.46 -39.79 -11.59 -60.84 -5.21 -18.93 5.79 -39.79 26.27 -46.35 45.39 -4.83 15.06 -3.86 26.65 4.25 42.68 11.01 22.40 31.48 37.47 56.59 41.33 15.84 2.32 25.11 1.35 38.63 -4.83z m354.02 -0.19 c23.37 -10.43 43.07 -38.63 43.26 -61.61 0 -23.95 -20.47 -51.76 -45 -60.84 -15.45 -5.79 -47.13 -5.02 -60.65 1.55 -25.30 12.36 -43.26 43.65 -38.63 67.21 9.27 45.97 59.10 72.43 101.01 53.69z m194.49 -1.16 c13.52 -6.37 28.78 -22.60 35.92 -38.24 11.01 -24.34 -0.97 -58.71 -26.85 -76.10 -33.41 -22.60 -78.61 -13.91 -101.40 19.31 -18.15 26.07 -15.26 55.43 7.53 78.22 23.95 23.95 56.20 30.32 84.79 16.80z m1019.38 4.83 c6.57 -2.12 12.94 -6.57 21.05 -14.87 17 -17.19 18.35 -22.21 18.35 -73.97 l0 -41.33 -7.15 0.58 -7.34 0.58 -0.97 47.32 c-1.16 52.92 -2.12 57.36 -15.06 67.21 -5.79 4.44 -9.08 5.41 -22.21 5.99 -17.77 0.77 -27.62 -1.74 -36.31 -8.88 -12.17 -10.24 -13.33 -15.64 -13.33 -66.63 l0 -45.97 -8.69 0 -8.88 0 1.35 40.17 c1.16 43.26 2.32 50.60 10.04 64.70 11.78 21.82 44.23 33.61 69.14 25.11z m169.96 -0.77 c10.24 -4.44 22.40 -15.84 26.27 -24.14 3.28 -7.73 3.28 -8.69 0.39 -16.22 -1.93 -5.02 -6.18 -10.24 -10.82 -13.52 -7.34 -5.41 -13.71 -7.73 -48.28 -18.15 -20.86 -6.37 -26.65 -11.97 -26.65 -26.46 0 -16.22 7.53 -20.86 37.66 -22.40 14.29 -0.58 21.82 -0.19 28.78 2.12 5.21 1.55 10.24 2.51 11.20 1.93 4.44 -2.90 0.19 -6.57 -11.97 -10.43 -11.59 -3.67 -15.64 -4.06 -30.32 -2.90 -19.70 1.55 -28 4.64 -36.89 13.13 -12.94 12.36 -15.45 24.53 -7.15 36.50 5.99 8.88 19.31 15.26 43.46 20.86 22.02 5.02 33.80 9.85 36.50 15.06 1.16 2.32 2.12 8.50 2.12 13.91 0 8.30 -0.97 10.82 -5.41 15.45 -3.09 3.09 -9.46 6.57 -14.10 7.73 -11.40 3.09 -36.89 1.35 -51.18 -3.67 -15.45 -5.41 -14.87 -5.41 -15.64 -1.93 -0.97 3.86 17.58 12.55 32.45 15.06 12.55 2.32 31.87 1.35 39.59 -1.93z m257.45 -1.93 c12.36 -5.21 18.73 -11.78 15.06 -15.06 -2.12 -1.74 -5.02 -1.16 -12.75 3.09 -7.53 3.86 -13.71 5.21 -25.11 5.99 -37.08 2.12 -60.45 -16.03 -63.35 -49.44 -1.55 -19.89 1.93 -33.80 11.59 -44.23 13.13 -14.29 18.35 -16.03 48.09 -16.03 22.60 0 26.46 0.58 32.25 4.06 5.60 3.48 6.95 3.67 9.27 1.16 2.51 -2.51 2.12 -3.28 -2.70 -6.76 -3.09 -2.12 -11.20 -5.79 -17.96 -8.11 -10.62 -3.67 -15.06 -4.06 -28.97 -3.09 -20.47 1.55 -33.22 7.15 -46.35 20.47 -25.69 25.69 -26.85 58.91 -3.09 87.68 18.54 22.60 57.17 31.87 84.01 20.28z m-1904.14 -26.85 l0 -30.90 43.46 0 43.46 0 0.97 4.44 c0.58 2.32 1.16 16.03 1.55 30.32 l0.39 26.07 6.76 0 6.76 0 0.58 -65.09 0.39 -65.28 -7.73 0 -7.73 0 0 25.88 c0 14.29 -0.58 27.23 -1.16 28.97 -0.97 2.70 -6.76 3.09 -44.42 3.09 l-43.26 0 0 -28.97 0 -28.97 -7.73 0 -7.73 0 0 64.31 c0 35.54 0.58 65.09 1.35 65.67 0.58 0.77 4.06 1.35 7.73 1.35 l6.37 0 0 -30.90z m646.04 28.97 c0.58 -1.16 0.58 -3.67 0 -5.79 -1.16 -3.67 -2.90 -3.86 -38.82 -3.86 l-37.47 0 0 -59.87 0 -59.87 -7.73 0 c-6.57 0 -7.92 0.77 -8.88 4.83 -0.58 2.51 -0.77 31.29 -0.39 63.74 0.39 49.83 0.97 59.29 3.48 60.84 4.06 2.51 88.26 2.51 89.81 0z m216.51 -4.25 c14.87 -7.34 27.23 -20.09 36.12 -37.28 11.01 -21.44 6.57 -44.42 -12.94 -66.05 -36.50 -40.37 -103.52 -26.85 -123.03 24.53 -4.83 12.94 -4.64 25.69 0.97 39.01 11.78 28.78 37.85 45.77 70.30 45.97 14.10 0 17.38 -0.77 28.58 -6.18z m112.79 -19.51 c0 -20.67 0.58 -24.34 3.48 -27.04 2.90 -2.70 9.08 -3.28 35.34 -3.67 l31.67 -0.58 0 -4.83 0 -4.83 -35.34 -0.58 -35.34 -0.39 0.58 -25.69 0.58 -25.49 39.59 -0.97 39.59 -0.97 0.58 -5.21 0.58 -5.41 -48.28 0 -48.48 0 0 63.35 c0 34.96 0.58 64.12 1.35 64.70 0.58 0.77 4.06 1.35 7.73 1.35 l6.37 0 0 -23.76z m222.11 -18.73 l0 -42.49 8.30 0 8.30 0 20.67 30.71 c11.59 17 22.02 31.87 23.56 33.03 2.32 1.93 5.79 -2.32 20.09 -24.34 28 -43.65 26.07 -41.33 34.96 -41.33 l7.73 0 0 43.65 0 43.46 7.34 -0.58 7.15 -0.58 -0.39 -37.66 c-0.19 -20.67 -0.39 -49.64 -0.39 -64.12 l-0.19 -26.65 -6.37 0 c-5.79 0 -6.95 1.16 -15.64 16.03 -5.21 8.69 -17.38 28.78 -27.04 44.42 l-17.58 28.58 -7.73 -0.58 c-7.73 -0.58 -7.92 -0.77 -27.04 -29.94 -10.62 -16.22 -23.37 -35.92 -28.39 -44.04 -8.50 -13.52 -9.66 -14.49 -16.03 -14.49 l-6.76 0 0 64.70 0 64.70 7.73 0 7.73 0 0 -42.49z m548.51 -22.21 l0 -64.70 -7.73 0 -7.73 0 0 63.35 c0 34.96 0.58 64.12 1.35 64.70 0.58 0.77 4.06 1.35 7.73 1.35 l6.37 0 0 -64.70z m-2462.89 -9.85 c49.64 -10.04 86.53 -45.77 101.59 -98.11 11.59 -39.59 11.40 -35.15 12.55 -291.83 l1.16 -235.63 5.79 -10.43 c5.99 -11.01 14.68 -18.73 23.56 -21.44 3.09 -0.97 -22.79 -1.55 -63.16 -1.55 -63.35 -0.19 -67.79 0.19 -59.29 2.70 11.97 3.67 23.18 15.26 27.81 28.39 3.28 9.46 3.48 23.76 3.48 260.16 0 197.58 -0.58 255.33 -2.70 275.22 -5.21 50.80 -14.87 73.39 -35.92 84.59 -6.37 3.48 -11.01 4.25 -26.46 4.25 -15.84 0 -19.51 -0.58 -24.14 -4.06 -7.73 -5.60 -11.59 -14.68 -14.87 -34.96 -3.09 -19.89 -6.95 -28 -15.84 -33.61 -14.49 -8.88 -32.45 -0.77 -40.37 18.15 -2.51 6.18 -2.70 8.69 -0.77 14.49 11.40 34.96 57.94 53.89 107.58 43.65z m705.34 -196.61 c53.89 -9.66 88.84 -38.24 97.53 -79.57 2.12 -10.24 2.12 -14.49 0 -24.72 -8.30 -39.59 -33.41 -59.68 -112.99 -90 -49.83 -19.12 -64.12 -28.39 -70.88 -45.97 -5.41 -14.10 -4.83 -42.88 0.97 -54.85 9.08 -18.54 27.81 -29.16 55.62 -31.48 28.97 -2.51 52.34 4.64 70.50 21.63 12.94 11.97 20.09 22.60 28.78 42.49 l7.34 16.22 -0.97 -30.52 c-0.39 -16.80 -1.16 -31.48 -1.55 -32.64 -0.97 -2.90 -25.69 -11.20 -48.28 -16.22 -36.89 -8.11 -63.74 -7.15 -94.06 3.86 -28 10.24 -47.13 26.65 -58.33 50.22 -5.02 10.82 -5.99 14.68 -5.99 28 0 13.33 0.97 17.19 6.18 28.20 13.13 28.20 33.22 42.10 96.18 66.83 27.62 10.82 54.08 25.30 64.51 34.96 13.91 13.13 19.51 26.27 19.51 45.97 0 29.16 -9.08 45.97 -30.52 55.43 -22.02 9.85 -60.07 11.20 -86.72 3.09 -28.39 -8.88 -57.55 -41.14 -67.21 -74.55 -2.32 -7.92 -5.02 -14.29 -5.99 -14.10 -0.97 0 -1.74 1.35 -1.55 2.90 0 1.55 0.19 17.77 0.39 35.92 l0.39 32.83 12.36 5.60 c6.95 3.09 21.44 8.30 32.45 11.59 38.63 11.20 64.89 13.71 92.32 8.88z m321.57 -3.09 c22.40 -5.99 38.05 -14.10 51.76 -27.04 20.09 -18.54 29.74 -41.52 28 -66.05 -0.77 -10.62 -2.70 -16.80 -9.08 -29.55 -13.91 -28 -35.54 -42.88 -97.73 -66.63 -70.11 -26.65 -78.61 -34.57 -79.77 -73.39 -0.58 -19.12 -0.39 -20.86 4.83 -30.90 10.24 -20.09 30.13 -28.97 64.51 -28.97 44.23 0 66.05 15.26 88.46 61.80 l7.92 16.22 0 -30.32 0 -30.52 -9.08 -3.86 c-26.85 -11.59 -70.69 -20.09 -92.90 -18.35 -47.51 3.86 -85.56 24.91 -100.62 55.62 -13.71 28 -8.69 56.20 13.91 80.15 16.03 17 36.12 28.20 87.30 48.28 42.10 16.61 62 29.55 72.04 46.74 4.44 7.53 5.21 11.59 5.79 27.43 1.16 25.49 -2.51 37.66 -14.87 50.02 -12.17 12.17 -26.27 17.38 -50.41 18.73 -39.40 2.32 -63.16 -5.99 -87.30 -30.32 -14.29 -14.49 -21.82 -27.23 -35.92 -59.87 -1.55 -3.86 -2.12 0.19 -1.93 18.35 0 12.75 0.58 29.36 1.35 36.70 l1.16 13.52 13.13 6.37 c13.33 6.57 47.51 16.22 69.53 19.51 18.15 2.90 51.95 0.97 69.92 -3.67z m1065.15 -0.39 c15.45 -4.64 35.73 -15.06 44.61 -22.98 l6.57 -5.79 -9.66 4.83 c-20.09 9.66 -48.09 11.20 -69.34 3.86 -11.59 -4.06 -23.56 -15.45 -30.13 -28.78 -4.44 -8.69 -4.83 -11.97 -4.83 -33.80 0 -22.02 0.39 -25.11 5.02 -34.76 10.43 -21.82 35.34 -39.21 75.90 -53.11 18.54 -6.37 45.97 -12.36 55.82 -12.55 l7.15 0 0 56.59 c0 30.90 -0.77 59.68 -1.74 63.74 -0.97 4.25 -3.67 9.66 -6.18 12.17 l-4.25 4.64 6.76 0 c6.57 0 6.76 0.19 9.85 11.20 7.92 28.20 33.03 44.42 59.10 37.85 12.17 -3.09 29.55 -11.40 33.80 -16.03 2.51 -2.90 1.55 -3.09 -11.59 -2.51 -17.58 0.77 -22.40 -1.74 -28.39 -14.68 -4.06 -8.88 -4.25 -11.78 -5.41 -112.41 -1.16 -112.41 -0.97 -110.86 -12.75 -134.04 -5.99 -11.59 -20.09 -27.04 -30.52 -33.22 -19.51 -11.40 -57.36 -19.31 -82.28 -17.38 -34.19 2.70 -66.25 16.03 -88.26 36.89 -12.94 11.97 -21.63 26.46 -21.63 35.92 0 7.34 7.53 17.58 16.03 21.63 6.95 3.48 7.34 3.48 13.33 0 10.62 -6.18 13.52 -12.17 15.26 -31.67 2.51 -27.62 10.04 -39.21 33.22 -51.57 9.46 -5.02 11.40 -5.21 36.12 -5.21 29.36 0 35.54 1.93 47.70 14.29 15.26 15.84 19.89 32.45 21.25 78.99 0.58 21.25 0.39 36.12 -0.77 37.28 -0.97 0.97 -17.38 5.60 -36.50 10.43 -59.10 14.68 -92.51 26.85 -116.85 42.49 -17.38 11.20 -27.62 22.40 -36.12 39.40 -6.18 12.36 -6.95 16.03 -6.95 28 0 11.40 0.97 16.03 5.99 26.65 11.78 25.30 31.48 40.17 61.42 46.74 15.84 3.48 30.90 2.51 49.25 -3.09z m393.42 4.06 c38.63 -5.21 67.79 -21.63 95.99 -54.08 9.27 -10.62 22.21 -30.71 19.89 -30.71 -0.58 0 -3.09 3.67 -5.79 8.30 -7.53 12.75 -30.13 33.03 -44.61 39.98 -33.99 16.03 -79.38 15.45 -114.34 -1.93 -29.94 -14.68 -50.22 -40.37 -61.80 -78.22 -5.21 -16.80 -5.41 -18.73 -5.41 -60.84 0 -41.14 0.19 -44.42 5.21 -62.77 7.34 -27.43 17 -45.77 31.29 -60.26 23.18 -23.18 53.89 -32.06 88.84 -25.49 15.06 2.70 23.76 7.34 32.64 17.38 9.66 10.62 13.71 20.28 17.38 41.33 2.70 15.64 3.48 17.96 9.66 23.76 8.88 7.92 17.58 8.30 26.46 0.97 8.69 -7.53 11.78 -15.45 9.08 -24.91 -7.34 -27.23 -30.52 -46.74 -68.18 -57.75 -54.66 -16.03 -112.99 -1.93 -153.93 37.28 -26.46 25.30 -44.23 56.78 -51.95 92.13 -4.06 18.54 -3.09 58.91 1.74 77.25 5.21 19.51 18.93 46.74 31.29 62.19 23.56 29.55 61.61 50.60 101.40 56.40 16.42 2.32 18.35 2.32 35.15 0z m-2071.78 -6.57 c27.43 -9.46 52.73 -29.36 73.01 -57.75 5.60 -7.73 4.83 -7.15 -7.73 5.21 -24.53 24.14 -45.58 32.25 -82.86 32.25 -47.51 -0.19 -74.94 -12.55 -99.27 -45 -22.79 -30.32 -33.80 -67.21 -33.80 -114.72 l0 -14.10 118.01 0 118.20 0 -1.35 -11.40 c-3.67 -31.87 -17.96 -63.35 -38.05 -83.44 -26.65 -26.85 -71.85 -40.95 -111.25 -34.76 -66.05 10.24 -114.14 54.66 -132.11 121.87 -6.37 23.56 -6.37 63.54 -0.19 86.91 9.08 33.41 20.28 53.11 42.68 75.32 34.19 33.99 66.05 46.74 113.18 45.58 21.63 -0.39 27.43 -1.35 41.52 -5.99z m880.71 0 c15.45 -5.60 33.80 -15.84 39.21 -21.82 2.90 -3.09 1.55 -2.90 -6.76 1.35 -9.66 4.64 -11.97 5.02 -38.24 5.02 -25.11 0 -28.78 -0.39 -35.92 -4.25 -9.85 -5.21 -17.38 -13.91 -23.76 -27.62 -4.44 -9.66 -5.02 -12.94 -5.02 -33.80 0 -21.05 0.39 -24.14 5.02 -33.80 11.97 -25.11 40.95 -43.46 93.29 -58.91 23.95 -7.15 12.75 -5.60 -14.49 1.74 -54.27 15.06 -92.71 31.87 -112.60 49.83 -7.73 6.76 -12.75 13.71 -17.96 24.34 -6.76 13.33 -7.34 16.03 -7.34 30.13 0 13.52 0.97 17.38 6.18 28.58 10.24 21.63 27.81 35.92 53.31 43.07 15.84 4.64 46.93 2.70 65.09 -3.86z m150.84 0.97 c5.79 -2.32 13.33 -6.18 16.42 -8.69 l5.60 -4.64 -13.52 -0.19 c-16.22 0 -24.72 -4.25 -29.55 -15.06 -2.90 -6.37 -3.48 -19.51 -4.44 -110.47 -1.16 -112.41 -1.16 -112.79 -12.94 -137.13 -20.67 -42.88 -89.42 -61.42 -152 -41.14 -33.99 11.01 -63.54 36.31 -70.50 60.45 -2.51 8.50 1.74 18.15 10.04 23.18 7.73 4.64 13.71 4.83 20.86 0.77 8.11 -4.83 11.59 -12.55 13.52 -30.13 3.09 -27.23 13.13 -41.72 36.12 -52.34 7.92 -3.67 12.55 -4.25 32.45 -4.25 21.44 0 23.95 0.39 34.19 5.41 25.30 12.36 33.99 34.57 35.73 91.55 l1.16 34.96 -7.53 2.12 c-4.25 1.16 -11.01 2.90 -15.26 3.86 -6.57 1.35 -5.60 1.55 6.76 1.35 l14.49 -0.19 0 60.07 0 59.87 -5.21 8.11 -5.21 7.92 5.99 0.58 c5.41 0.58 6.18 1.55 8.11 9.46 8.69 34.38 38.82 48.28 74.74 34.57z m332.58 -4.44 c88.07 -12.94 134.62 -50.22 138.09 -110.86 1.16 -21.05 -1.74 -37.28 -9.27 -54.08 -15.84 -34.76 -43.46 -54.85 -93.67 -68.18 l-19.31 -5.21 0 -7.15 0 -7.34 14.49 -5.41 c46.93 -17 69.14 -37.66 78.22 -71.65 10.43 -39.01 -11.78 -85.17 -49.44 -102.56 l-13.71 -6.37 0.77 -15.45 c1.16 -22.02 7.34 -34.19 28.58 -55.43 l16.61 -17 10.04 0 c8.69 0 10.43 0.58 11.97 4.44 1.35 3.28 1.74 1.55 1.74 -7.53 0.19 -8.69 1.16 -12.55 3.67 -14.87 1.74 -1.55 17.19 -11.78 33.99 -22.40 29.16 -18.35 31.48 -19.51 41.14 -19.51 10.04 0 10.24 -0.19 10.24 -5.41 0 -6.76 2.90 -9.46 19.89 -18.73 11.01 -5.99 14.49 -6.95 22.60 -6.37 l9.66 0.58 0 -6.57 c0 -3.67 1.16 -8.11 2.70 -9.66 2.51 -2.70 1.93 -3.09 -5.41 -2.51 -7.15 0.58 -8.88 0 -12.17 -4.25 -4.44 -5.60 -6.37 -4.83 -6.37 3.09 0 5.21 -0.39 5.41 -9.27 5.41 -10.62 0 -13.91 2.32 -13.91 10.24 0 5.41 -0.19 5.60 -9.08 4.83 l-9.27 -0.58 0.58 8.11 c0.58 7.73 0.19 8.50 -8.30 14.49 -21.25 15.06 -99.66 56.01 -122.84 64.31 -13.52 4.64 -16.80 5.02 -37.85 4.44 l-22.98 -0.58 8.88 12.55 c20.86 29.16 30.90 50.02 30.90 63.93 0 7.15 -0.39 7.53 -5.79 7.53 -8.11 0 -22.21 -7.15 -26.27 -13.13 -3.09 -4.64 -3.48 -4.64 -4.64 -1.55 -1.16 3.48 -6.37 3.67 -130.56 3.48 -71.07 -0.19 -127.08 0.58 -124.38 1.35 14.10 4.44 27.43 16.22 30.32 26.85 0.97 2.90 1.55 92.13 1.55 198.35 0 154.32 -0.58 194.88 -2.51 201.64 -3.67 12.17 -14.87 23.18 -26.46 26.46 -15.06 4.25 217.28 2.51 246.83 -1.74z m978.43 1.35 c-10.82 -3.28 -19.89 -12.75 -23.37 -24.34 -1.93 -6.37 -2.51 -32.64 -2.51 -111.63 l0 -103.33 5.41 -9.08 5.41 -9.27 -4.64 0 c-4.44 0 -4.64 -0.58 -5.79 -18.73 -0.77 -10.43 -1.35 -61.80 -1.35 -114.34 0 -84.40 -0.39 -95.02 -2.90 -94.06 -10.82 4.06 -59.10 17 -73.39 19.51 l-7.73 1.35 8.88 2.70 c10.82 3.28 19.89 12.75 22.98 23.95 3.28 12.17 1.74 405.97 -1.74 416.21 -3.28 9.66 -13.33 19.31 -22.79 21.82 -5.41 1.35 8.69 1.93 52.53 1.93 54.85 0.19 59.10 -0.19 50.99 -2.70z m221.53 -0.19 c-11.20 -3.86 -19.51 -11.78 -22.60 -21.44 -1.35 -4.64 -2.70 -42.88 -3.67 -112.41 -1.16 -90.97 -1.93 -106.80 -4.64 -116.65 -12.17 -41.72 -43.65 -67.02 -87.10 -69.92 -29.55 -2.12 -61.03 8.88 -82.47 28.39 l-10.24 9.46 8.69 -4.64 c17.96 -9.85 26.65 -11.78 51.18 -11.78 20.86 0 24.14 0.58 33.80 5.02 18.35 8.50 29.16 22.79 34.96 46.16 3.67 14.49 4.06 215.15 0.39 226.94 -2.90 9.66 -10.62 17.38 -20.86 21.05 -7.15 2.51 -2.51 2.90 52.15 2.90 57.75 0 59.49 -0.19 50.41 -3.09z m-834.16 -448.85 c8.30 -3.28 25.30 -11.01 37.85 -17.38 18.54 -9.27 24.53 -11.40 32.25 -11.40 l9.66 0 0 -7.34 c0 -4.06 1.35 -9.27 3.09 -11.78 1.74 -2.51 -1.93 -0.39 -8.50 5.02 -22.79 18.35 -90.39 48.86 -108.35 48.86 l-9.27 0 -6.95 -15.26 c-9.85 -21.44 -16.03 -44.23 -20.67 -75.13 -4.44 -30.32 -4.83 -43.07 -1.55 -46.35 4.44 -4.44 18.93 -2.32 49.25 7.53 16.80 5.21 35.15 11.40 40.75 13.33 l10.04 3.67 0 -4.64 c0 -4.44 -0.58 -4.83 -10.24 -4.83 -5.99 0 -18.15 -2.51 -29.36 -5.99 -25.69 -7.92 -29.94 -10.43 -29.94 -16.22 0 -5.02 -2.70 -6.37 -5.02 -2.70 -1.35 2.51 -25.88 1.35 -32.45 -1.35 -3.28 -1.16 -3.48 -0.97 -2.12 2.32 0.97 1.93 2.12 9.46 2.51 16.61 0.58 10.82 0.19 13.33 -2.32 14.29 -2.70 1.16 -2.90 1.55 -0.39 3.48 1.74 1.16 4.06 9.85 5.99 20.47 5.79 34.76 16.22 65.67 31.10 90.77 l6.76 11.59 11.40 -5.79 c6.37 -3.09 18.15 -8.50 26.46 -11.78z m-378.55 -80.92 l7.34 -0.19 -8.69 -4.64 c-4.83 -2.51 -9.46 -3.86 -10.24 -2.90 -0.97 0.77 -0.97 4.83 -0.19 8.88 1.16 6.57 1.55 6.95 2.90 3.09 1.35 -3.28 3.28 -4.25 8.88 -4.25z m274.45 -27.23 c7.73 -0.19 6.76 -0.58 -7.15 -2.70 -8.88 -1.55 -18.35 -3.09 -21.25 -3.67 -4.44 -0.97 -4.25 -0.77 1.35 2.12 4.83 2.51 6.18 4.44 6.18 8.88 l0 5.60 5.99 -5.02 c4.44 -3.67 8.30 -5.02 14.87 -5.21z m430.50 -2.51 c3.48 -3.86 6.37 -8.50 6.37 -10.43 0 -6.76 5.99 -9.46 24.14 -10.82 18.35 -1.16 33.03 -4.83 39.98 -9.85 5.21 -3.48 4.83 -3.67 -6.95 0 -12.17 3.67 -43.46 3.67 -63.93 0 -19.89 -3.67 -20.47 -3.67 -13.33 0.77 9.08 5.41 14.29 13.33 14.29 21.05 0 11.20 -4.06 13.91 -21.05 14.10 -11.40 0.19 -13.33 0.58 -8.88 1.93 3.28 0.77 9.66 1.16 14.49 0.77 6.95 -0.39 9.85 -1.93 14.87 -7.53z m-146.98 -3.48 c-0.58 -3.48 -1.93 -18.15 -3.09 -32.45 -1.16 -14.29 -2.90 -29.16 -3.86 -32.83 -1.55 -5.99 -1.74 -5.79 -0.77 2.90 0.39 5.41 1.74 21.05 2.70 34.76 1.93 24.34 3.28 33.80 5.21 33.80 0.58 0 0.58 -2.90 -0.19 -6.18z m-120.90 -39.21 c1.93 -2.32 1.93 -2.90 -0.77 -2.90 -1.74 0 -3.09 1.35 -3.09 2.90 0 1.55 0.39 2.90 0.77 2.90 0.39 0 1.74 -1.35 3.09 -2.90z m337.99 -21.25 c1.55 -1.93 5.79 -2.90 12.36 -2.90 27.23 0 63.35 -14.29 80.35 -31.67 l8.50 -8.88 -18.15 0 c-25.88 0 -27.62 -0.77 -26.65 -9.85 0.39 -4.25 0.19 -7.53 -0.39 -7.53 -1.35 0 -42.30 7.73 -48.28 9.08 -6.37 1.55 14.10 5.21 46.93 8.50 l24.72 2.32 -0.58 7.92 c-0.58 6.95 -1.55 8.30 -8.30 12.17 -15.84 8.88 -36.31 12.75 -72.43 14.10 -18.54 0.77 -31.67 1.55 -28.97 1.74 2.70 0.19 9.66 1.93 15.45 4.06 13.52 4.44 12.55 4.44 15.45 0.97z m-419.69 -9.08 c-0.39 -2.51 -0.77 -0.97 -0.77 3.28 -0.19 4.25 0.19 6.18 0.77 4.44 0.39 -1.93 0.39 -5.41 0 -7.73z m-20.09 -31.48 c-0.97 -4.64 -1.16 -4.64 -7.73 -1.93 -3.86 1.55 -7.34 3.09 -8.11 3.28 -0.58 0 2.70 0.77 7.53 1.55 4.83 0.77 8.88 1.55 8.88 1.55 0.19 0.19 -0.19 -1.74 -0.58 -4.44z m288.74 -22.60 c4.25 -9.46 7.53 -17 6.95 -17 -0.97 0 -13.52 25.11 -15.26 30.90 -2.32 7.92 0 3.86 8.30 -13.91z m-40.75 -12.55 c-0.39 -3.09 -0.77 -0.58 -0.77 5.21 0 5.79 0.39 8.30 0.77 5.41 0.39 -3.09 0.39 -7.73 0 -10.62z m284.68 5.79 c2.51 -2.90 2.32 -2.90 -1.16 -1.16 -2.12 1.16 -5.21 2.51 -6.76 3.09 -1.93 0.77 -1.55 1.16 1.16 1.16 2.32 0.19 5.41 -1.16 6.76 -3.09z m-484.97 -8.30 c-5.99 -8.30 -7.15 -8.50 -8.11 -0.97 -0.77 6.57 -0.58 6.76 5.79 6.76 l6.37 0 -4.06 -5.79z m272.71 -25.69 c7.15 -5.99 16.22 -12.55 20.28 -14.49 10.24 -5.21 33.41 -12.94 52.73 -17.77 9.08 -2.12 19.51 -4.83 23.18 -5.79 3.67 -0.97 13.71 -3.09 22.21 -4.83 38.43 -7.34 81.50 -21.05 106.23 -33.80 12.55 -6.57 11.59 -6.18 -11.20 2.12 -14.10 5.21 -43.65 13.13 -97.15 25.69 -69.72 16.42 -101.01 28.97 -120.90 48.28 -5.99 5.79 -12.55 13.33 -15.06 17 l-4.25 6.37 5.60 -5.99 c2.90 -3.28 11.20 -11.01 18.35 -16.80z m282.37 -15.26 c3.67 -5.99 3.67 -5.99 0 -4.44 -11.01 4.64 -30.13 8.69 -40.75 8.69 l-12.17 0 0 -6.37 c0 -3.48 1.16 -7.53 2.51 -8.88 2.51 -2.70 1.93 -2.32 -15.06 5.41 -5.21 2.51 -18.35 7.34 -28.97 10.82 l-19.31 6.57 21.25 0 c11.78 0.19 28 -1.16 36.31 -2.70 8.30 -1.55 20.28 -2.90 26.65 -2.90 l11.40 0 0 6.18 c0 3.48 -1.74 8.11 -4.25 11.01 -2.51 2.70 0.97 0 7.34 -6.18 6.37 -5.99 13.13 -13.71 15.06 -17.19z m-578.25 -34.38 c0 -5.41 -0.77 -7.73 -2.70 -7.73 -2.90 0 -5.02 -3.86 -5.21 -10.24 0 -4.25 -0.19 -4.25 -2.32 0.39 -1.74 3.86 -1.16 6.18 3.48 14.87 3.09 5.79 5.99 10.43 6.18 10.43 0.39 0 0.58 -3.48 0.58 -7.73z m590.42 -23.76 c8.11 -9.08 19.70 -26.46 17.38 -26.46 -0.39 0 -3.48 4.06 -6.76 9.27 -3.28 5.02 -12.75 16.03 -21.05 24.53 -9.27 9.46 -11.97 12.94 -6.95 9.08 4.44 -3.48 12.17 -10.82 17.38 -16.42z m-229.25 -7.34 c13.71 -3.67 54.85 -20.86 53.31 -22.40 -0.39 -0.39 -3.67 0.58 -7.15 2.12 -3.67 1.74 -19.89 7.73 -36.31 13.71 -16.42 5.79 -30.32 11.20 -30.90 11.97 -0.58 0.58 0.58 0.58 2.70 -0.19 2.12 -0.77 10.24 -3.09 18.35 -5.21z m254.17 -37.47 c2.90 -9.08 4.64 -17 4.25 -17.58 -0.58 -0.39 -5.99 3.28 -12.17 8.30 l-11.20 9.27 5.99 0.58 c5.79 0.58 6.18 1.16 6.18 8.30 0 4.06 0.39 7.53 0.97 7.53 0.39 0 3.09 -7.34 5.99 -16.42z m-175.56 3.28 c6.57 -3.28 20.09 -11.78 29.74 -18.73 16.03 -11.20 18.93 -12.55 27.04 -12.55 5.60 0 9.46 0.97 10.04 2.51 0.97 2.70 7.15 -17.58 8.69 -28.20 l0.97 -7.53 -19.12 19.12 c-19.70 19.51 -35.15 30.90 -61.03 45 -8.30 4.44 -15.06 8.30 -15.06 8.88 0 0.97 5.02 -1.16 18.73 -8.50z m-353.83 -2.32 c-8.50 -2.12 -20.86 -2.12 -24.14 0 -1.93 1.35 2.32 1.74 13.52 1.74 11.59 -0.19 14.68 -0.77 10.62 -1.74z"/>
  <path d="M1061.87 1205.18 c-14.29 -4.25 -27.81 -17.19 -33.41 -31.67 -5.21 -13.71 -3.48 -41.91 3.48 -53.69 11.20 -19.12 22.98 -24.91 51.57 -25.49 23.56 -0.19 30.90 2.51 43.26 16.22 10.62 11.97 12.75 18.35 12.75 39.98 0 21.82 -3.09 30.52 -14.49 41.91 -11.01 11.01 -21.44 14.68 -41.14 14.49 -9.27 0 -19.12 -0.77 -22.02 -1.74z"/>
  <path d="M1253.27 1204.40 c-25.69 -9.08 -39.01 -32.25 -35.54 -61.80 2.90 -25.30 14.49 -39.98 37.47 -46.74 23.37 -6.76 52.15 -0.19 64.89 15.06 9.27 11.01 11.40 18.15 11.40 39.21 0 16.22 -0.77 20.86 -4.44 28.58 -5.79 11.78 -17.58 21.82 -29.94 25.49 -11.78 3.48 -34.38 3.67 -43.84 0.19z"/>
  <path d="M1658.28 1204.02 c-13.52 -4.25 -27.04 -18.15 -31.29 -32.83 -4.25 -14.87 -3.09 -39.21 2.70 -50.22 5.21 -10.24 17.58 -21.25 26.85 -23.76 4.06 -1.16 16.03 -2.12 26.85 -2.12 17 0 20.47 0.58 29.36 5.02 17.77 8.88 25.49 23.76 25.49 49.64 0 21.25 -2.90 29.36 -14.49 41.33 -7.34 7.53 -12.17 10.62 -20.09 12.94 -12.94 3.86 -32.83 3.86 -45.39 0z"/>
  <path d="M400.37 720.98 c2.12 -32.45 11.78 -56.78 30.71 -77.06 16.42 -17.38 33.80 -25.88 56.01 -27.23 37.08 -2.32 62.77 10.04 76.29 36.89 7.53 14.87 13.91 43.46 14.49 64.51 l0.58 18.73 -89.62 0.58 -89.62 0.39 1.16 -16.80z"/>
  <path d="M1764.12 931.50 c-3.48 -0.39 -7.73 -2.51 -9.66 -4.83 -3.48 -3.67 -3.67 -9.85 -4.25 -114.14 -0.39 -60.65 0 -112.41 0.58 -114.92 l1.16 -4.64 65.09 0.97 c69.53 0.97 76.87 1.74 103.91 11.97 17 6.37 29.16 14.29 39.98 25.88 18.54 19.70 23.56 36.89 23.56 78.41 -0.19 33.80 -2.51 46.35 -11.97 66.25 -7.34 15.06 -27.43 34.76 -43.26 42.49 -23.95 11.78 -29.55 12.55 -97.34 12.94 -33.99 0.39 -64.51 0.19 -67.79 -0.39z"/>
  <path d="M1750.60 682.74 c-0.58 -3.86 -0.97 -48.09 -0.39 -98.50 0.39 -71.27 1.16 -92.13 3.09 -94.06 1.93 -1.93 16.80 -2.51 65.67 -2.32 52.34 0 65.47 0.58 76.29 3.28 35.15 8.69 56.59 30.52 63.16 64.31 1.35 6.95 2.12 22.40 1.55 37.66 -0.58 24.34 -0.97 26.65 -6.76 38.82 -11.01 23.18 -30.52 40.17 -56.59 49.06 -18.35 6.18 -45.77 8.50 -99.85 8.50 l-44.81 0 -1.35 -6.76z"/>
 </g>
 <g fill="#040404">
  <path d="M79.77 1147.04 c-22.98 -3.86 -42.49 -14.87 -52.53 -29.55 -10.04 -14.87 -12.36 -28.20 -6.95 -41.33 6.37 -15.06 17.19 -22.02 33.99 -22.02 21.05 0 29.36 9.27 33.80 37.47 5.02 31.29 11.78 39.21 33.22 39.21 26.46 -0.19 41.72 -15.45 50.41 -49.83 8.30 -32.45 8.88 -51.37 8.88 -308.44 0 -274.83 0.97 -256.10 -14.49 -272.13 -6.76 -6.95 -21.63 -13.71 -30.13 -13.71 -3.09 0 -6.37 -5.79 -5.21 -9.08 0.77 -1.93 19.51 -2.51 84.79 -2.51 l84.01 0 -0.58 5.21 c-0.58 4.44 -1.93 5.41 -10.62 7.34 -13.13 2.90 -21.44 9.66 -28.58 22.40 l-5.79 10.43 -1.16 235.63 c-1.16 256.68 -0.97 252.24 -12.55 291.83 -18.35 63.74 -68.76 101.78 -133.46 101.01 -9.27 -0.19 -21.44 -0.97 -27.04 -1.93z"/>
  <path d="M479.37 950.04 c-35.15 -3.67 -64.89 -18.35 -92.32 -45.19 -23.37 -23.18 -34.38 -42.10 -43.65 -76.29 -3.86 -14.10 -4.44 -20.86 -4.44 -49.25 0.19 -28 0.77 -35.15 4.64 -49.25 21.44 -79.77 85.56 -127.28 166.29 -123.03 24.91 1.35 38.63 4.83 59.68 15.06 37.66 18.54 60.45 55.24 67.79 108.54 0.97 8.50 1.55 16.03 0.77 17 -0.58 0.97 -50.22 1.74 -118.78 1.74 l-117.62 0 0 8.30 c0.19 52.92 19.89 101.59 52.92 129.79 18.73 15.84 43.84 23.95 74.36 24.14 40.17 0 69.72 -17.19 97.15 -56.59 2.90 -4.06 4.25 -4.64 8.69 -3.48 4.25 1.16 5.41 2.70 5.02 6.18 -0.77 11.97 -27.43 47.51 -47.90 64.12 -28.39 22.79 -67.98 32.83 -112.60 28.20z m92.51 -232.54 c-0.77 -16.80 -7.92 -45.39 -14.29 -58.13 -9.85 -19.51 -26.85 -31.87 -49.44 -35.73 -25.88 -4.64 -51.18 4.64 -71.27 26.27 -17.38 18.35 -27.62 42.10 -30.71 71.07 l-1.16 11.01 83.82 -0.39 83.82 -0.58 -0.77 -13.52z"/>
  <path d="M775.45 949.08 c-20.47 -3.67 -52.34 -13.13 -67.79 -20.09 l-12.36 -5.60 -0.39 -32.83 c-0.19 -18.15 -0.39 -37.08 -0.58 -42.10 l0 -9.27 7.53 0 7.34 0 4.25 14.68 c6.76 23.56 22.02 45.77 42.30 61.42 13.52 10.43 26.85 15.45 46.35 17.58 40.75 4.64 73.59 -10.43 81.50 -37.47 6.76 -22.40 0.97 -42.88 -16.61 -59.49 -10.43 -9.66 -36.89 -24.14 -64.51 -34.96 -46.74 -18.35 -69.34 -30.71 -83.05 -45.97 -3.86 -4.44 -9.85 -13.71 -13.33 -20.86 -5.60 -11.97 -5.99 -14.10 -5.99 -33.99 0 -19.70 0.39 -22.02 5.99 -33.80 14.68 -30.90 45.58 -51.18 88.26 -57.94 29.16 -4.83 76.10 1.16 111.44 13.91 l12.55 4.44 1.55 39.40 c0.77 21.63 1.16 39.59 0.97 39.79 -0.39 0.19 -2.51 1.16 -5.02 1.74 -3.67 1.16 -4.83 0.39 -7.34 -5.99 -15.26 -37.66 -32.06 -59.49 -53.69 -70.11 -36.31 -17.96 -81.50 -7.15 -95.99 22.79 -5.60 11.40 -6.18 30.32 -1.16 43.26 6.76 17.58 21.05 26.85 70.88 45.97 68.37 26.07 94.25 43.46 107.19 71.85 22.79 50.02 -4.83 106.42 -61.80 126.12 -30.71 10.62 -66.05 13.33 -98.50 7.53z"/>
  <path d="M1084.08 950.04 c-22.02 -3.28 -56.20 -12.94 -69.53 -19.51 l-13.13 -6.37 -1.55 -17.38 c-0.77 -9.46 -1.16 -28.58 -0.97 -42.49 l0.58 -25.11 5.21 -0.58 c4.44 -0.58 5.79 0.39 7.53 4.83 1.35 2.90 6.57 14.49 11.78 25.30 21.63 45.77 60.65 69.53 106.23 65.28 39.79 -3.67 61.61 -27.04 59.10 -63.16 -2.12 -28.97 -21.05 -45.58 -77.83 -67.98 -51.18 -20.09 -71.27 -31.29 -87.30 -48.28 -17.19 -18.15 -22.98 -35.34 -21.25 -62.58 1.16 -20.67 8.69 -36.89 23.76 -51.57 26.46 -26.07 80.15 -39.21 128.24 -31.29 20.28 3.28 46.16 10.43 60.45 16.42 l9.08 3.86 0 38.63 c0 21.25 -0.77 39.01 -1.55 39.59 -2.70 1.55 -10.04 -0.97 -10.04 -3.48 0 -4.44 -15.84 -34.96 -24.34 -46.74 -16.03 -22.60 -37.66 -33.61 -66.25 -33.61 -28.20 0 -49.25 10.43 -58.71 28.97 -4.83 9.46 -5.41 12.36 -4.83 25.11 1.55 32.64 12.75 42.10 79.77 67.60 62.38 23.95 83.82 38.63 97.92 67.02 7.53 15.26 8.30 17.77 8.88 35.34 1.35 30.90 -6.76 51.76 -28 71.46 -22.60 21.25 -51.18 30.90 -94.25 31.87 -14.87 0.39 -32.45 0 -39.01 -1.16z"/>
  <path d="M2169.90 949.08 c-30.13 -6.76 -49.44 -21.44 -61.42 -46.74 -5.60 -11.78 -6.18 -14.49 -6.18 -32.45 0 -18.35 0.39 -20.09 7.15 -33.80 18.73 -37.66 56.40 -57.94 152.58 -81.89 18.93 -4.64 35.34 -9.08 36.50 -9.85 1.55 -0.97 1.93 -9.85 1.16 -31.48 -1.55 -41.14 -6.57 -58.71 -21.25 -73.78 -11.40 -11.78 -18.93 -14.29 -41.91 -14.29 -18.35 0 -21.25 0.58 -30.32 5.41 -22.98 11.97 -30.71 23.76 -33.22 51.18 -1.74 19.31 -4.44 25.49 -14.29 31.29 -12.17 7.53 -29.16 3.09 -37.47 -9.46 -5.99 -9.08 -5.99 -24.72 0.19 -37.85 9.66 -21.05 44.04 -45 75.90 -53.31 39.21 -10.24 93.86 -4.64 123.22 12.55 10.43 6.18 24.53 21.63 30.52 33.22 11.78 23.18 11.59 21.82 12.94 134.04 0.97 94.44 1.35 104.10 4.64 111.63 1.93 4.44 5.79 9.85 8.50 11.97 6.18 5.02 18.54 5.02 28 0 8.30 -4.44 11.59 -4.83 14.68 -1.16 1.55 1.93 0.77 4.44 -3.67 10.43 -11.20 15.64 -34.19 25.88 -58.13 26.27 -12.75 0.19 -16.22 -0.58 -26.07 -5.60 -13.71 -7.15 -22.79 -18.15 -27.04 -33.41 -1.74 -5.99 -3.48 -11.40 -3.86 -11.78 -0.39 -0.39 -7.53 5.60 -15.64 13.52 -31.87 30.32 -76.68 44.04 -115.50 35.34z m70.88 -31.87 c14.68 -3.09 31.48 -12.17 42.10 -22.79 17.19 -17.19 16.42 -13.13 17 -76.10 l0.58 -55.82 -6.37 1.35 c-32.06 6.37 -67.40 18.35 -87.30 29.94 -13.91 7.92 -27.81 22.40 -33.61 34.57 -6.57 14.10 -7.92 34.76 -3.28 48.67 6.76 21.25 19.70 33.80 39.59 39.21 13.13 3.48 18.35 3.67 31.29 0.97z"/>
  <path d="M2577.42 950.04 c-39.79 -5.79 -77.83 -26.85 -101.40 -56.40 -12.36 -15.45 -26.07 -42.68 -31.29 -62.19 -3.48 -12.75 -4.06 -21.05 -4.25 -46.35 0 -33.80 1.55 -44.42 11.01 -70.30 11.59 -32.25 43.26 -70.30 72.04 -86.33 29.94 -16.80 58.33 -23.18 95.80 -21.44 61.22 2.51 105.45 30.90 110.86 71.27 3.09 22.98 -15.64 40.37 -37.47 34.57 -12.55 -3.48 -17.58 -10.82 -20.86 -30.32 -3.67 -20.86 -7.73 -30.52 -17.38 -41.14 -9.27 -10.43 -18.35 -15.06 -35.15 -17.77 -26.65 -4.44 -53.89 5.02 -74.74 25.88 -14.49 14.49 -23.95 32.83 -31.29 60.26 -4.83 17.77 -5.21 22.21 -5.21 56.98 0 35.73 0.39 38.63 5.41 55.04 11.59 37.66 31.87 63.54 61.80 78.22 33.99 16.80 70.11 17.38 102.75 1.93 14.49 -6.95 37.08 -27.23 44.42 -39.79 6.95 -11.97 9.46 -13.52 15.26 -9.66 6.18 4.06 6.18 6.95 -0.97 20.28 -10.62 20.09 -35.73 45.58 -57.94 59.10 -26.46 16.03 -66.25 23.18 -101.40 18.15z"/>
  <path d="M1356.40 947.34 c-25.30 -7.15 -43.07 -21.44 -53.31 -43.07 -5.79 -12.17 -6.18 -14.29 -6.18 -34.38 0 -20.67 0.19 -21.63 7.34 -35.92 9.46 -19.31 22.40 -30.90 49.83 -44.81 23.56 -11.97 69.14 -27.43 103.14 -34.76 12.75 -2.70 26.65 -5.99 30.71 -7.15 l7.53 -2.12 -1.16 -29.16 c-1.93 -51.37 -11.40 -73.78 -35.73 -85.75 -9.66 -4.64 -13.33 -5.41 -28.39 -5.41 -13.91 0 -19.31 0.77 -26.65 4.25 -22.98 10.62 -33.03 25.11 -36.12 52.34 -2.12 18.93 -5.99 26.27 -16.42 31.29 -10.24 5.02 -15.64 4.83 -26.07 -0.39 -23.18 -11.78 -19.51 -41.91 8.50 -68.95 25.88 -24.72 70.30 -38.63 115.11 -36.12 48.48 2.70 82.66 20.09 96.95 49.44 11.78 24.34 11.78 24.72 12.94 137.13 0.97 90.97 1.55 104.10 4.44 110.47 6.18 13.71 21.82 18.54 38.43 11.97 6.76 -2.70 8.11 -2.90 10.62 -0.58 2.32 2.32 2.12 3.67 -0.97 8.88 -8.30 13.52 -29.16 23.56 -52.53 25.11 -28.39 2.12 -45.39 -6.18 -55.62 -26.85 -3.28 -6.57 -5.99 -13.71 -5.99 -16.22 0 -8.11 -3.48 -6.76 -15.64 6.18 -14.10 14.49 -27.81 23.37 -48.09 30.71 -12.55 4.64 -17.96 5.41 -40.56 5.99 -18.93 0.58 -28.78 0 -36.12 -2.12z m89.62 -32.83 c13.52 -4.06 30.90 -17.38 40.17 -30.71 l7.73 -11.20 0.58 -53.11 c0.58 -31.48 0 -53.89 -0.97 -54.85 -2.51 -2.51 -27.23 2.70 -48.48 10.04 -56.01 19.51 -81.12 42.68 -83.05 77.25 -0.97 15.84 3.09 30.71 11.59 43.46 7.34 10.62 13.13 15.26 23.95 19.12 10.04 3.67 36.31 3.67 48.48 0z"/>
  <path d="M1643.79 941.74 c-4.25 -5.02 -0.97 -8.50 10.82 -10.82 13.91 -2.90 25.88 -13.71 29.74 -27.04 2.12 -6.95 2.70 -44.23 2.70 -196.03 0 -102.94 -0.58 -189.66 -1.55 -192.56 -3.09 -11.59 -16.42 -22.60 -33.03 -27.43 -6.57 -1.93 -7.92 -3.09 -7.92 -6.95 l0 -4.83 131.33 -0.39 c72.23 -0.39 132.11 -0.58 133.07 -0.58 0.97 0 0.77 -1.16 -0.58 -2.51 -1.55 -2.12 -0.97 -2.51 3.67 -1.74 3.86 0.58 7.92 3.67 12.75 9.46 3.86 4.83 11.59 12.17 16.80 16.42 9.08 7.15 10.04 7.53 12.36 4.25 1.35 -1.93 2.51 -6.37 2.51 -9.85 0 -4.44 0.97 -6.37 2.90 -6.37 1.55 0 2.90 1.16 2.90 2.51 0 1.35 6.18 5.21 13.52 8.69 32.06 14.87 52.15 48.86 52.15 88.26 0 47.90 -23.95 76.68 -81.12 97.53 -7.92 3.09 -14.10 6.18 -13.71 6.95 0.19 0.97 8.88 4.06 19.31 6.76 49.44 13.13 77.25 33.41 92.90 67.98 7.92 17.77 10.24 32.45 9.27 59.68 -1.16 27.43 -4.64 38.82 -17.77 58.13 -20.86 30.52 -60.65 49.83 -120.32 58.71 -16.61 2.32 -45.77 3.09 -145.43 3.86 -112.21 0.77 -124.96 0.58 -127.28 -2.12z m255.71 -19.31 c20.09 -5.60 35.54 -14.29 49.06 -28 22.02 -22.02 29.94 -44.23 29.94 -84.21 0.19 -35.34 -5.79 -53.89 -23.37 -72.62 -10.82 -11.59 -22.98 -19.51 -39.98 -25.88 -26.46 -10.04 -34.96 -11.01 -98.11 -11.97 l-59.29 -0.97 -1.16 4.64 c-0.58 2.51 -0.97 51.57 -0.58 109.12 0.58 98.50 0.77 104.68 4.25 108.35 1.93 2.32 6.18 4.44 9.66 4.83 3.28 0.58 31.29 0.77 62 0.39 45 -0.39 58.33 -1.16 67.60 -3.67z m-43.07 -240.65 c45.39 -4.25 75.52 -22.79 90.97 -55.62 5.41 -11.40 6.18 -15.45 6.76 -32.83 2.12 -53.69 -18.93 -85.17 -64.70 -96.38 -17.38 -4.25 -126.31 -5.02 -130.37 -0.97 -1.93 1.93 -2.51 21.25 -2.90 90.77 -0.19 48.67 0 90.20 0.58 92.71 1.16 4.25 1.55 4.25 40.17 4.25 21.25 0 48.09 -0.97 59.49 -1.93z"/>
  <path d="M2770.94 943.09 c-0.77 -0.58 -1.35 -3.28 -1.35 -5.79 0 -3.67 1.55 -4.83 8.88 -6.57 10.82 -2.70 20.67 -11.78 24.14 -22.02 3.48 -10.24 5.02 -392.45 1.74 -404.62 -3.09 -11.20 -12.17 -20.67 -22.98 -23.76 -7.73 -2.32 -8.88 -3.48 -9.46 -8.50 l-0.58 -5.79 16.03 -3.09 c8.88 -1.74 27.81 -6.76 42.10 -11.01 14.29 -4.44 28.97 -8.50 32.45 -9.08 5.99 -0.97 6.18 -0.77 6.37 6.37 0 4.25 0 49.25 0 100.24 0 50.99 0.58 99.47 1.35 107.77 l1.35 15.26 10.62 -12.36 c23.56 -27.43 48.09 -43.26 75.32 -49.06 19.51 -4.06 52.53 -2.70 68.37 2.90 23.76 8.50 43.46 25.88 53.31 47.13 10.43 22.40 11.40 33.61 12.17 141.38 0.58 66.44 1.74 100.82 3.09 105.65 3.09 10.04 10.82 17 24.34 21.82 9.85 3.48 11.59 4.64 11.59 8.69 l0 4.83 -68.18 0.58 c-61.80 0.39 -68.18 0.19 -69.34 -2.70 -1.74 -4.83 1.74 -8.88 10.04 -11.78 10.24 -3.48 17.96 -11.20 20.86 -20.86 3.48 -11.78 3.28 -200.86 -0.39 -215.35 -5.79 -23.37 -16.61 -37.66 -34.96 -46.16 -9.27 -4.44 -12.94 -5.02 -28.97 -4.83 -19.51 0.19 -30.32 3.28 -47.13 13.13 -12.94 7.53 -28.39 22.79 -35.92 35.15 l-6.76 11.20 0 97.73 c0 73.97 0.58 99.47 2.51 105.84 3.67 12.36 12.55 21.05 24.72 24.72 9.46 2.70 10.43 3.48 10.43 8.69 l0 5.60 -67.21 0 c-37.08 0 -67.98 -0.58 -68.56 -1.35z"/>
 </g>
 <g fill="#a08043">
  <path d="M538.08 1222.37 c-11.01 -1.74 -29.36 -8.30 -34.76 -12.36 -3.48 -2.70 -3.48 -3.09 -0.39 -11.59 2.12 -5.21 4.64 -8.69 6.57 -8.69 1.55 0 8.30 2.12 14.87 4.64 18.35 7.53 35.92 9.66 48.09 6.18 11.97 -3.48 16.80 -8.11 17 -16.42 0.39 -11.01 -8.11 -16.22 -39.01 -24.34 -23.18 -6.18 -31.67 -9.85 -39.01 -17.77 -14.29 -15.06 -8.69 -44.42 10.82 -56.40 8.11 -5.02 33.61 -8.69 52.15 -7.34 16.03 0.97 35.92 7.92 35.92 12.36 0 4.64 -8.30 18.15 -10.43 17.19 -13.71 -5.99 -29.74 -9.27 -39.79 -8.30 -33.03 3.48 -41.33 20.28 -16.42 32.83 3.28 1.55 14.49 5.21 25.11 8.11 21.05 5.99 34.76 11.97 39.98 17.77 5.99 6.57 9.66 18.15 8.50 26.27 -5.02 30.71 -35.54 45.19 -79.19 37.85z"/>
  <path d="M714.22 1222.56 c-25.30 -4.06 -45.58 -18.93 -56.78 -41.72 -6.37 -12.75 -7.15 -16.22 -7.34 -29.36 -0.19 -25.69 10.62 -46.35 31.67 -60.65 14.87 -9.85 24.34 -12.17 51.18 -12.17 21.25 0 23.95 0.39 33.99 5.21 5.79 2.90 12.55 7.34 14.87 9.85 l4.25 4.44 -8.50 8.30 -8.30 8.11 -10.24 -6.37 c-9.85 -5.99 -11.20 -6.37 -28.78 -6.37 -16.61 0 -19.51 0.58 -27.23 5.21 -17.96 10.43 -25.11 22.79 -25.11 42.49 0 40.95 46.93 65.67 81.50 42.88 4.06 -2.51 8.88 -4.64 10.82 -4.64 4.25 0 13.91 9.66 13.91 13.71 0 4.44 -7.53 10.62 -20.28 16.61 -12.94 5.79 -29.94 7.34 -49.64 4.44z"/>
  <path d="M1063.22 1221.98 c-33.41 -8.69 -55.62 -33.80 -58.33 -66.44 -2.32 -28.97 13.71 -57.75 39.59 -70.50 7.92 -3.86 12.55 -4.44 35.15 -5.02 22.98 -0.58 27.43 -0.19 37.08 3.48 15.45 5.79 30.71 20.09 38.63 36.31 5.79 11.59 6.37 14.49 6.37 30.32 0 14.87 -0.77 18.93 -5.21 28.58 -7.34 15.64 -23.95 32.45 -38.63 39.01 -14.10 6.37 -38.82 8.30 -54.66 4.25z m40.17 -24.34 c19.12 -8.11 30.13 -25.49 30.32 -47.13 0 -15.45 -2.90 -23.18 -12.75 -34.19 -11.40 -12.75 -20.28 -16.42 -37.85 -15.84 -8.30 0.19 -17.77 1.55 -21.25 2.90 -30.71 12.94 -40.37 54.85 -18.54 79.77 6.37 7.15 16.22 13.91 24.34 16.22 9.66 2.90 26.65 2.12 35.73 -1.74z"/>
  <path d="M1259.64 1222.37 c-49.83 -8.88 -77.25 -59.87 -56.01 -103.91 5.99 -12.36 21.63 -27.43 35.34 -33.99 9.85 -4.64 14.68 -5.60 32.06 -6.37 23.95 -0.97 35.34 1.74 50.99 12.36 11.59 7.73 18.93 16.61 25.69 31.29 4.44 9.46 5.21 13.52 5.21 29.36 0 21.82 -2.90 29.55 -17.96 47.70 -17.19 20.67 -44.42 29.16 -75.32 23.56z m31.67 -23.95 c21.25 -6.18 34.19 -24.72 34.19 -48.28 0 -21.44 -8.30 -35.54 -26.07 -44.61 -26.07 -13.13 -57.36 -3.48 -70.88 21.82 -4.25 8.11 -5.99 23.37 -3.86 33.41 6.37 29.94 36.12 46.74 66.63 37.66z"/>
  <path d="M2291.38 1222.56 c-20.86 -4.25 -33.22 -13.33 -41.72 -30.52 -5.99 -12.17 -6.18 -13.52 -7.53 -46.55 -0.77 -18.73 -1.55 -41.14 -1.55 -49.83 l-0.19 -16.03 14.49 0 14.49 0 0 45.97 c0 40.17 0.58 46.74 3.67 53.50 12.55 28 53.89 29.94 67.02 3.48 3.28 -6.37 3.86 -13.33 4.64 -54.66 l0.97 -47.32 13.13 -0.58 12.94 -0.58 0 47.13 c0 58.13 -0.97 62.38 -18.35 79.77 -16.80 16.80 -34.76 21.63 -62 16.22z"/>
  <path d="M2451.10 1222.37 c-11.01 -1.93 -31.67 -10.24 -34.96 -14.29 -2.70 -3.28 3.48 -18.35 7.73 -18.35 1.93 0 8.11 2.12 13.91 4.83 14.68 6.76 36.70 9.85 47.70 6.76 9.85 -2.51 19.51 -11.20 19.51 -17.38 0 -11.20 -8.69 -16.42 -38.63 -23.18 -36.89 -8.69 -49.06 -18.54 -48.86 -40.37 0.19 -12.75 3.28 -19.70 12.55 -28.58 9.66 -9.27 18.15 -11.97 42.88 -13.33 19.89 -1.16 23.56 -0.97 35.73 3.09 17.96 5.79 19.31 7.53 13.91 18.73 -3.28 6.76 -5.02 8.30 -7.53 7.34 -19.31 -7.53 -27.62 -9.08 -41.72 -7.73 -23.76 2.12 -34.96 11.59 -27.62 22.98 5.02 7.53 10.04 10.04 36.12 17.58 29.74 8.50 39.98 14.49 45.97 26.07 5.21 10.43 5.41 19.51 0.58 30.13 -3.67 8.11 -16.03 19.31 -26.27 23.76 -7.34 3.28 -37.28 4.44 -50.99 1.93z"/>
  <path d="M2704.11 1221.59 c-23.76 -5.41 -40.95 -19.51 -51.76 -42.68 -4.64 -9.85 -5.41 -13.71 -5.41 -29.74 0 -15.84 0.77 -19.89 5.21 -29.36 6.57 -14.10 21.82 -29.36 35.34 -35.54 8.69 -4.06 14.68 -5.21 32.45 -5.99 18.93 -0.97 23.18 -0.58 34.19 3.28 12.94 4.25 24.53 11.78 26.46 16.80 0.97 2.70 -10.04 16.03 -13.33 16.03 -0.77 0 -5.60 -2.51 -10.62 -5.79 -8.50 -5.41 -10.24 -5.79 -28.97 -5.79 -23.37 0 -29.94 2.51 -42.49 16.03 -12.94 14.10 -15.26 34.96 -5.99 55.04 12.36 26.27 52.34 35.34 76.87 17.58 4.25 -3.09 8.88 -5.60 10.24 -5.60 2.90 0 14.87 11.78 14.87 14.68 0 3.67 -12.55 14.10 -22.21 18.35 -12.17 5.41 -37.47 6.76 -54.85 2.70z"/>
  <path d="M829.91 1221.21 c-0.77 -0.58 -1.35 -32.83 -1.35 -71.46 l0 -70.11 13.52 0 13.52 0 0 28.97 0 28.97 37.47 0 c32.45 0 37.66 -0.39 38.63 -3.09 0.58 -1.74 1.16 -14.68 1.16 -28.97 l0 -25.88 13.52 0 13.52 0 -0.39 71.07 -0.58 70.88 -12.55 0 -12.55 0 -0.39 -26.07 c-0.77 -39.01 4.06 -34.76 -40.17 -34.76 l-37.66 0 0 30.90 0 30.90 -12.17 0 c-6.76 0 -12.94 -0.58 -13.52 -1.35z"/>
  <path d="M1400.25 1220.63 c-2.51 -1.55 -3.09 -11.59 -3.48 -66.63 -0.39 -35.73 -0.19 -67.02 0.39 -69.72 1.16 -4.44 2.12 -4.64 14.68 -4.64 l13.52 0 0 59.87 0 59.87 37.66 0 37.66 0 1.16 4.64 c0.58 2.51 0.77 7.34 0.39 11.01 l-0.58 6.57 -49.25 0.39 c-28.97 0.39 -50.41 -0.19 -52.15 -1.35z"/>
  <path d="M1650.74 1217.92 c-31.29 -12.94 -47.51 -35.92 -47.70 -67.21 0 -24.91 11.40 -46.74 31.48 -60.07 15.26 -10.24 28.97 -13.52 52.34 -12.55 17.58 0.58 21.05 1.35 32.45 6.95 15.26 7.53 28.78 21.44 35.92 37.08 4.06 8.69 5.02 13.71 5.02 28 0.19 15.84 -0.39 18.35 -5.99 28.97 -8.88 17.38 -21.25 30.13 -36.12 37.28 -11.97 5.79 -13.91 6.18 -34.38 6.18 -18.54 0 -23.56 -0.77 -33.03 -4.64z m47.13 -19.70 c7.92 -2.32 12.75 -5.41 20.09 -12.94 10.82 -11.01 14.49 -20.28 14.49 -35.54 0 -29.36 -19.51 -48.86 -49.06 -48.86 -18.15 0 -26.85 2.70 -36.12 11.01 -22.02 19.89 -22.79 53.11 -1.93 73.97 14.49 14.49 31.67 18.54 52.53 12.36z"/>
  <path d="M1805.25 1219.28 c-0.77 -0.58 -1.35 -32.45 -1.35 -70.50 l0 -69.14 54.08 0 54.27 0 -0.58 11.20 -0.58 11.01 -39.59 0.97 -39.59 0.97 -0.58 19.70 -0.58 19.89 35.34 0.39 35.34 0.58 0 10.62 0 10.62 -31.67 0.58 c-26.27 0.39 -32.45 0.97 -35.34 3.67 -2.90 2.70 -3.48 6.37 -3.48 27.04 l0 23.76 -12.17 0 c-6.76 0 -12.94 -0.58 -13.52 -1.35z"/>
  <path d="M2026.01 1150.13 l0 -70.50 12.55 0 12.55 0 8.88 14.10 c27.62 43.26 45.97 71.07 48.28 73.01 3.67 2.90 2.51 4.44 33.03 -45.97 l24.72 -41.14 11.78 0 11.78 0 0.97 33.41 c0.58 18.15 0.77 49.83 0.77 69.92 l-0.19 36.70 -12.94 0.58 -13.13 0.58 0 -43.65 c0 -23.95 -0.77 -43.46 -1.55 -43.46 -2.70 0 -6.57 5.41 -26.27 36.12 -10.24 16.03 -20.28 31.29 -22.40 33.80 l-3.48 4.44 -6.18 -5.79 c-3.28 -3.09 -15.26 -19.51 -26.65 -36.12 -11.20 -16.80 -21.63 -30.52 -22.98 -30.52 -1.93 0 -2.51 8.88 -2.51 42.49 l0 42.49 -13.52 0 -13.52 0 0 -70.50z"/>
  <path d="M2575.87 1219.28 c-0.77 -0.58 -1.35 -32.45 -1.35 -70.50 l0 -69.14 13.52 0 13.52 0 0 70.50 0 70.50 -12.17 0 c-6.76 0 -12.94 -0.58 -13.52 -1.35z"/>
  <path d="M2424.45 669.80 c-33.80 -35.92 -68.37 -125.54 -71.46 -185.41 -1.16 -20.28 -1.35 -20.86 -5.60 -20.86 -2.51 0 -14.68 5.21 -27.23 11.40 -12.55 6.37 -29.55 14.10 -37.85 17.38 -8.11 3.28 -21.05 9.08 -28.39 12.75 -7.34 3.67 -14.68 6.76 -16.22 6.76 -3.86 0 -9.46 -8.11 -19.51 -28.58 -9.85 -19.89 -18.54 -48.09 -22.98 -74.74 -3.67 -21.82 -5.41 -24.14 -17.77 -24.14 -6.76 0 -10.04 1.55 -18.54 8.30 -11.01 8.69 -12.94 10.24 -32.45 23.18 -6.95 4.64 -13.71 9.85 -15.26 11.59 -1.35 1.74 -3.67 3.28 -4.83 3.28 -1.16 0 -7.15 3.48 -13.52 7.73 -19.70 13.13 -41.91 15.06 -56.98 5.21 -5.41 -3.67 -9.46 -8.69 -13.91 -17.77 -4.64 -9.46 -7.15 -12.55 -10.24 -12.55 -2.51 0 -10.24 6.37 -20.47 17 -21.44 21.63 -27.43 33.41 -28.58 56.40 -0.39 9.08 -1.74 17.96 -2.70 19.89 -2.90 5.60 -13.33 4.25 -22.98 -3.28 -7.73 -5.99 -26.85 -25.69 -28.58 -29.55 -0.39 -0.77 -3.28 -5.21 -6.37 -9.85 -12.75 -18.54 -23.56 -49.64 -22.40 -64.70 0.58 -7.34 1.16 -8.11 6.18 -8.69 3.48 -0.39 11.01 1.74 19.31 5.79 11.59 5.41 16.42 6.37 30.71 6.95 14.87 0.77 19.12 0 31.87 -4.44 23.18 -8.30 101.78 -49.25 122.84 -64.12 8.11 -5.79 8.69 -6.76 6.76 -10.82 -1.55 -3.48 -1.55 -5.79 0.19 -9.27 1.55 -2.70 1.74 -4.64 0.58 -5.02 -1.16 -0.39 -3.67 -1.93 -5.60 -3.28 -3.48 -2.70 -3.48 -2.90 0 -6.76 2.12 -2.32 5.79 -4.06 8.30 -4.06 3.67 0 4.44 0.97 4.44 5.79 0 4.25 1.35 6.37 5.60 8.50 5.41 2.90 5.60 2.90 4.64 -0.97 -2.12 -7.53 13.71 -18.15 19.70 -13.33 4.06 3.28 5.99 0.97 2.70 -3.09 -2.12 -2.70 -1.93 -3.67 2.12 -6.76 6.95 -5.21 11.59 -4.44 17.38 2.51 l5.21 5.99 17.38 -9.85 c9.66 -5.60 24.91 -13.52 33.80 -17.77 27.43 -12.75 53.69 -31.48 53.69 -38.05 0 -1.55 -1.93 -5.21 -4.25 -8.50 -3.67 -5.02 -4.06 -6.37 -1.93 -11.97 3.86 -10.82 2.70 -14.87 -9.27 -35.34 -6.57 -10.82 -12.17 -22.60 -12.75 -26.07 -1.35 -8.88 4.44 -17.58 17 -25.69 5.60 -3.67 15.45 -11.20 21.82 -17 18.54 -17 26.27 -19.70 55.04 -19.70 16.61 0 19.51 0.58 30.90 5.99 14.29 6.76 22.79 14.49 38.63 35.34 13.71 17.77 16.22 20.09 36.70 33.22 36.31 23.37 50.22 49.64 47.70 89.42 -1.16 17.38 -6.95 34.96 -14.10 43.07 l-4.83 5.21 0.97 -6.76 c4.25 -29.55 5.41 -44.61 4.44 -56.98 -2.12 -27.62 -15.06 -46.16 -44.61 -63.54 -19.12 -11.20 -22.79 -14.87 -40.37 -39.40 -11.97 -16.42 -19.51 -22.60 -34.76 -28.39 -13.33 -5.02 -44.61 -3.28 -58.91 3.48 -19.70 9.27 -40.56 29.94 -37.66 37.47 0.97 2.12 1.74 2.12 5.60 -0.39 8.30 -5.41 12.55 -3.67 25.69 11.01 13.91 15.26 25.11 21.63 44.23 24.91 15.84 2.90 21.82 6.95 32.83 23.56 12.17 17.96 26.65 31.10 45 40.95 33.80 18.15 44.23 38.05 48.09 92.71 3.48 47.13 10.04 63.35 36.70 90 34.38 34.57 73.39 49.83 168.03 65.47 64.31 10.62 84.21 16.80 98.31 31.29 8.50 8.69 4.64 8.88 -16.42 0.97 -22.21 -8.50 -42.30 -13.13 -94.44 -21.63 -77.45 -12.75 -102.75 -21.05 -141.18 -46.55 -19.70 -12.94 -36.70 -29.36 -46.74 -45 -12.55 -19.31 -15.84 -30.13 -17.96 -60.84 -4.25 -61.03 -11.20 -74.94 -48.09 -97.15 -16.80 -10.24 -34.76 -27.04 -45.77 -43.07 -8.50 -12.36 -11.20 -14.29 -28.97 -20.09 -20.09 -6.76 -36.50 -17.38 -44.04 -28.97 -6.57 -9.85 -9.66 -11.01 -12.75 -4.25 -1.74 3.67 -1.16 8.11 3.09 22.40 3.67 12.36 4.83 20.09 4.06 25.11 -0.97 6.76 -0.39 8.11 12.55 22.98 15.64 17.96 19.51 19.31 35.34 10.82 13.91 -7.34 15.84 -6.76 22.79 7.92 7.34 15.84 6.76 25.11 -3.28 49.64 -3.86 9.27 -7.53 20.09 -8.11 24.14 -1.16 7.15 -0.97 6.95 17 -11.78 12.55 -12.94 19.51 -18.73 22.60 -18.73 2.32 0 4.25 0.58 4.25 1.16 0 3.48 -32.25 46.74 -48.09 64.12 -19.89 22.02 -19.31 20.28 -9.66 34.96 l4.44 6.57 -4.83 -1.16 c-2.51 -0.58 -10.24 -3.28 -17.19 -6.37 -6.95 -2.90 -26.07 -9.46 -42.49 -14.68 -46.93 -15.06 -44.04 -14.49 -47.70 -10.82 -2.90 3.09 -2.70 5.21 0.97 32.06 4.83 32.83 11.01 55.82 21.05 77.83 4.83 10.82 7.92 15.26 10.43 15.26 4.06 0 51.76 -19.12 68.37 -27.43 40.56 -20.28 66.25 -48.09 91.16 -98.31 7.73 -15.84 11.20 -21.05 14.10 -21.05 3.48 0 3.48 0.19 -0.19 13.52 -7.15 26.27 -24.91 58.71 -47.13 86.53 -6.57 8.30 -6.76 8.50 -5.60 23.18 5.60 73.97 29.94 140.41 72.04 196.81 4.44 5.99 4.44 6.37 1.35 11.01 -4.06 6.37 -5.02 6.37 -12.17 -1.16z m-480.33 -194.10 c-4.83 -13.91 -30.71 -55.62 -38.63 -62.19 -4.83 -4.06 -10.04 -1.74 -9.08 3.67 0.97 7.53 12.75 31.10 23.37 46.93 7.34 11.01 11.59 15.45 17.77 18.35 4.64 2.12 8.69 3.48 9.08 3.28 0.39 -0.39 -0.77 -4.83 -2.51 -10.04z m139.83 -47.70 c26.85 -15.64 61.80 -40.17 61.80 -43.26 0 -0.77 -4.83 -3.86 -10.82 -6.95 -6.95 -3.67 -13.52 -9.08 -17.96 -14.87 -5.02 -6.76 -8.30 -9.27 -11.97 -9.27 -3.09 -0.19 -16.42 7.15 -35.73 19.31 -39.59 25.11 -38.05 23.56 -37.08 35.73 1.35 16.80 12.94 27.62 29.55 27.81 5.79 0 11.59 -2.12 22.21 -8.50z m107.77 -61.80 c0.39 -3.09 -0.39 -7.92 -1.55 -11.01 -2.90 -6.95 -29.74 -32.64 -34.19 -32.64 -3.48 0 -26.65 12.17 -31.87 16.80 -2.90 2.70 -3.09 3.48 -0.58 8.30 3.86 7.53 13.33 15.06 22.02 17.38 8.88 2.32 40.95 7.34 43.65 6.95 1.16 -0.39 2.12 -2.90 2.51 -5.79z m117.62 -13.13 c13.71 -14.10 16.03 -18.15 16.03 -27.62 0 -3.67 2.12 -16.80 4.83 -29.16 5.60 -25.69 5.99 -33.03 2.12 -42.30 -3.28 -7.53 -5.02 -7.92 -16.61 -3.86 -11.20 3.86 -19.12 3.67 -26.07 -0.97 -8.30 -5.60 -13.33 -4.83 -29.74 4.06 -23.37 12.75 -22.98 12.17 -12.17 23.95 8.30 9.08 13.91 20.47 13.91 28.39 0 7.73 -6.57 23.37 -13.52 32.06 l-7.92 9.85 4.44 2.32 c6.95 3.86 42.49 15.06 47.90 15.06 3.67 0.19 8.11 -3.09 16.80 -11.78z m-78.80 -18.15 c20.09 -17.38 20.28 -39.98 0.39 -51.76 -5.60 -3.28 -7.15 -3.28 -14.10 -0.97 -10.82 3.48 -42.88 25.11 -43.65 29.36 -0.97 5.41 19.70 24.14 30.32 27.23 13.91 4.44 17.96 3.86 27.04 -3.86z"/>
  <path d="M2569.69 388.98 c-2.12 -0.58 -14.10 -4.06 -26.46 -7.73 -17.77 -5.41 -25.11 -6.76 -34.19 -6.18 l-11.78 0.58 4.83 -4.83 c7.15 -7.15 23.56 -7.53 48.67 -1.16 23.76 5.99 39.21 6.57 43.65 1.55 4.25 -4.64 4.25 -5.02 -2.70 -12.75 -6.37 -7.34 -20.09 -13.52 -35.54 -15.64 l-9.46 -1.55 4.44 -3.48 c5.99 -4.83 23.56 -4.83 52.15 0.19 11.97 2.12 27.62 3.86 34.76 3.86 14.68 -0.19 35.54 -5.02 43.84 -10.43 l5.60 -3.86 -20.28 -6.37 c-24.53 -7.73 -48.28 -12.17 -65.47 -12.17 l-12.55 0 4.06 -4.06 c3.86 -4.06 6.57 -4.25 56.01 -5.60 44.42 -1.35 53.89 -2.12 66.25 -5.79 15.26 -4.25 29.16 -11.01 30.32 -14.68 0.39 -1.35 -7.92 -2.90 -23.37 -4.44 -13.33 -1.16 -31.87 -3.67 -41.14 -5.41 -12.36 -2.12 -23.18 -2.70 -39.79 -1.74 -16.42 0.77 -22.40 0.58 -21.44 -0.97 2.51 -4.25 14.29 -7.34 38.63 -10.43 38.05 -4.64 74.74 -12.17 99.08 -20.47 22.02 -7.34 44.23 -19.12 51.18 -26.65 3.67 -4.06 3.67 -4.06 -2.32 -4.06 -3.09 0 -12.75 1.35 -21.05 2.90 -8.30 1.55 -24.53 2.90 -36.31 2.90 -11.59 0 -31.29 0.97 -43.46 1.93 -19.51 1.74 -26.65 3.09 -48.28 8.88 l-4.83 1.35 4.44 -4.83 c4.44 -5.02 13.91 -8.30 40.37 -14.29 37.28 -8.50 88.07 -29.74 110.86 -46.55 13.91 -10.24 36.70 -33.41 45.19 -46.35 12.36 -18.35 7.53 -18.93 -18.15 -1.74 -43.46 28.97 -98.89 50.80 -157.60 62 -8.50 1.74 -18.54 3.86 -22.21 4.83 -3.67 0.97 -14.10 3.67 -23.18 5.79 -19.31 4.83 -42.49 12.55 -52.53 17.58 -10.43 5.21 -36.12 27.43 -42.10 36.31 -2.90 4.06 -10.04 18.73 -16.03 32.45 -6.18 13.52 -14.29 28.97 -18.35 34.19 -8.69 11.59 -20.09 21.05 -24.34 20.09 -2.32 -0.39 -1.16 -3.48 5.60 -13.91 4.64 -7.15 12.17 -22.40 16.42 -33.80 29.74 -78.61 51.57 -94.83 163.01 -121.10 79.19 -18.73 100.62 -25.30 135.97 -41.52 22.60 -10.43 42.88 -23.37 63.74 -40.75 9.66 -8.30 18.73 -15.06 19.70 -15.06 3.48 0 1.93 16.61 -3.09 33.99 -6.18 21.44 -14.49 37.08 -26.65 50.60 -10.43 11.20 -34.19 29.94 -46.16 36.12 -4.06 2.12 -10.24 6.18 -13.52 9.08 l-6.18 5.21 6.57 0.19 c8.50 0 26.85 -4.83 40.37 -10.82 5.99 -2.70 12.55 -4.64 14.49 -4.25 3.28 0.58 2.90 1.93 -3.28 14.29 -9.66 19.31 -26.46 34.96 -49.64 46.16 -9.85 4.83 -18.93 8.69 -20.28 8.69 -1.16 0 -3.28 1.35 -4.64 2.90 -1.35 1.55 -5.02 2.90 -8.11 2.90 -7.34 0 -22.98 3.86 -26.27 6.37 -4.64 3.67 2.70 5.02 27.23 5.02 l22.79 0.19 -2.32 4.25 c-4.06 7.73 -21.82 24.91 -29.74 29.16 -22.79 12.17 -45.39 18.73 -63.93 18.73 -11.97 0 -17.96 4.44 -9.85 7.53 2.70 0.97 7.92 2.51 11.78 3.09 3.86 0.77 7.53 2.12 7.92 3.09 1.55 2.32 -10.24 15.06 -18.93 20.47 -10.82 6.76 -22.98 10.04 -42.88 11.40 -18.15 1.35 -24.14 4.06 -24.14 10.82 0 1.93 -2.90 6.76 -6.57 10.62 -6.37 6.95 -7.15 7.34 -20.86 7.73 -7.73 0.19 -15.84 -0.19 -17.96 -0.58z"/>
  <path d="M2111.38 293.18 c-3.48 -3.48 -2.70 -6.76 2.70 -11.01 6.76 -5.21 9.27 -5.02 11.97 0.58 1.74 3.86 1.35 5.21 -2.32 8.69 -4.83 4.64 -8.88 5.21 -12.36 1.74z"/>
  <path d="M2133.59 280.44 c-4.64 -5.21 -4.06 -7.53 2.70 -9.85 7.92 -2.70 8.88 -2.70 10.04 0.58 0.58 1.35 -1.35 5.02 -4.25 7.73 -5.21 5.02 -5.41 5.02 -8.50 1.55z"/>
  <path d="M2499.58 216.70 c2.12 -40.37 38.05 -70.69 117.43 -99.66 44.42 -16.22 49.64 -18.35 68.56 -28.78 34.96 -19.31 56.40 -35.92 74.74 -57.94 6.37 -7.73 11.40 -11.97 13.91 -11.97 3.67 0 4.06 1.35 4.64 11.59 0.77 14.10 -3.67 31.87 -12.55 50.80 -5.21 11.20 -8.69 15.64 -17.58 22.60 -5.99 4.83 -12.17 8.69 -13.33 8.69 -1.35 0 0.39 -4.06 4.06 -9.27 3.67 -5.02 9.46 -14.87 12.55 -21.63 8.11 -17 4.64 -17.38 -17 -2.12 -26.65 18.93 -84.40 47.51 -107.58 53.31 -19.51 4.83 -49.83 17 -66.44 26.85 -25.69 15.06 -39.40 29.94 -53.89 58.71 -3.28 6.57 -6.57 11.97 -7.15 11.97 -0.77 0 -0.97 -5.79 -0.39 -13.13z"/>
 </g>
</svg>